<svg width="50" height="50" viewBox="0 0 50 50" fill="none" xmlns="http://www.w3.org/2000/svg">
<circle cx="25" cy="25" r="25" fill="#4D87E2"/>
<path d="M29.2878 33.5326L29.2881 30.2615C29.2882 28.4547 27.8236 26.9899 26.0168 26.9899H18.6913C16.8848 26.9899 15.4202 28.4543 15.42 30.2609L15.4197 33.5326M34.9614 33.5327L34.9617 30.2617C34.9618 28.4549 33.4972 26.9901 31.6904 26.9901M28.6577 16.7283C29.461 17.3243 29.9817 18.2799 29.9817 19.3571C29.9817 20.4343 29.461 21.3898 28.6577 21.9859M25.6933 19.3569C25.6933 21.1636 24.2287 22.6282 22.422 22.6282C20.6153 22.6282 19.1507 21.1636 19.1507 19.3569C19.1507 17.5502 20.6153 16.0856 22.422 16.0856C24.2287 16.0856 25.6933 17.5502 25.6933 19.3569Z" stroke="white" stroke-width="2" stroke-linecap="round" stroke-linejoin="round"/>
</svg>
