<svg width="19" height="19" viewBox="0 0 19 19" fill="none" xmlns="http://www.w3.org/2000/svg">
<circle cx="9.5" cy="9.5" r="9.5" fill="#4D87E2" fill-opacity="0.15"/>
<g clip-path="url(#clip0_2095_471)">
<path d="M9.5 5.375V13.625M11.375 6.875H8.5625C8.2144 6.875 7.88056 7.01328 7.63442 7.25942C7.38828 7.50556 7.25 7.8394 7.25 8.1875C7.25 8.5356 7.38828 8.86944 7.63442 9.11558C7.88056 9.36172 8.2144 9.5 8.5625 9.5H10.4375C10.7856 9.5 11.1194 9.63828 11.3656 9.88442C11.6117 10.1306 11.75 10.4644 11.75 10.8125C11.75 11.1606 11.6117 11.4944 11.3656 11.7406C11.1194 11.9867 10.7856 12.125 10.4375 12.125H7.25" stroke="#4D87E2" stroke-linecap="round" stroke-linejoin="round"/>
</g>
<defs>
<clipPath id="clip0_2095_471">
<rect width="9" height="9" fill="white" transform="translate(5 5)"/>
</clipPath>
</defs>
</svg>
