<svg width="19" height="19" viewBox="0 0 19 19" fill="none" xmlns="http://www.w3.org/2000/svg">
<circle cx="9.5" cy="9.5" r="9.5" fill="#4D87E2" fill-opacity="0.15"/>
<path d="M12.5 12.875V12.125C12.5 11.7272 12.342 11.3456 12.0607 11.0643C11.7794 10.783 11.3978 10.625 11 10.625H8C7.60218 10.625 7.22064 10.783 6.93934 11.0643C6.65804 11.3456 6.5 11.7272 6.5 12.125V12.875M11 7.625C11 8.45343 10.3284 9.125 9.5 9.125C8.67157 9.125 8 8.45343 8 7.625C8 6.79657 8.67157 6.125 9.5 6.125C10.3284 6.125 11 6.79657 11 7.625Z" stroke="#4D87E2" stroke-linecap="round" stroke-linejoin="round"/>
</svg>
