<?xml version="1.0" encoding="utf-8"?>
<!-- Generator: Adobe Illustrator 23.0.3, SVG Export Plug-In . SVG Version: 6.00 Build 0)  -->
<svg version="1.1" id="Capa_1" xmlns="http://www.w3.org/2000/svg" xmlns:xlink="http://www.w3.org/1999/xlink" x="0px" y="0px"
	 viewBox="0 0 1500 1500" style="enable-background:new 0 0 1500 1500;" xml:space="preserve">
<style type="text/css">
	.st0{display:none;fill:#303030;}
	.st1{display:none;}
	.st2{display:inline;}
	.st3{fill:#FFFFFF;}
	.st4{fill:url(#SVGID_1_);}
	.st5{display:inline;fill:#5426D6;}
	.st6{display:inline;fill:#4D87E2;}
	.st7{display:inline;fill:url(#SVGID_2_);}
	.st8{display:inline;fill:#FFFFFF;}
	.st9{fill:#221D30;}
	.st10{fill:url(#SVGID_3_);}
	.st11{fill:url(#SVGID_4_);}
	.st12{fill:url(#SVGID_5_);}
	.st13{fill:url(#SVGID_6_);}
	.st14{fill:url(#SVGID_7_);}
</style>
<rect y="724.25" class="st0" width="1500" height="775.75"/>
<g class="st1">
	<g class="st2">
		<g>
			<path class="st3" d="M757.98,1034.45l18.55-24.87h-7.74c-2.98-0.17-5.84,1.22-7.55,3.67l-9.78,13.2l-9.49-13.2
				c-1.7-2.46-4.56-3.85-7.55-3.67h-7.74l18.35,24.87l-20.08,27.12h7.34c2.98,0.17,5.84-1.22,7.55-3.67l11.62-15.39l27.22,37.61
				c1.69,2.47,4.55,3.87,7.54,3.67h7.96L757.98,1034.45z"/>
			<rect x="906.49" y="1009.57" class="st3" width="10.54" height="51.99"/>
			<rect x="823.21" y="1009.57" class="st3" width="10.5" height="51.99"/>
			<path class="st3" d="M982.44,1079.91l38.02-70.33h-5.71c-3.46,0-6.11,0.99-7.54,3.67l-14.99,27.83l-12.94-27.83
				c-1.32-2.76-4.08-3.67-7.55-3.67h-5.45l19.98,42.41l-17.44,31.81h5.71C978.1,1083.79,980.91,1082.66,982.44,1079.91z"/>
			<path class="st3" d="M846.25,1009.57v51.99h10.49v-35.68c3.27-4.59,7.96-7.45,13.79-7.45c7.74,0,13.04,4.93,13.04,14.69v23.44
				c-0.14,2.61,1.86,4.85,4.47,4.99c0.15,0.01,0.3,0.01,0.45,0h5.6v-30.28c0-13.46-8.56-22.83-21-22.83
				c-6.04-0.1-11.88,2.13-16.31,6.23v-5.1H846.25z"/>
			<path class="st3" d="M936.46,1043.11c0,11.31,6.9,19.37,19.37,19.37c2.58,0.05,5.16-0.28,7.64-0.99l-2.12-9.21
				c-1.57,0.35-3.18,0.52-4.79,0.51c-5.1,0-9.58-2.76-9.58-9.85v-24h14.68l-4.28-9.38h-10.41v-20.89l-10.5,4.58v16.31h-11.11v9.38
				h11.11V1043.11z"/>
			<path class="st3" d="M790.94,1018.95v42.61h10.45v-42.61h13.46v-9.38H801.4v-3.87c0-8.87,5.3-11.82,10.5-11.82
				c1.21,0,2.41,0.17,3.57,0.51l2.15-9.32c-2.1-0.72-4.31-1.05-6.53-0.99c-13.04,0-20.13,9.68-20.13,21.4v4.08h-5.55l-6.63,9.38
				H790.94z"/>
		</g>
		<g>
			<path class="st3" d="M767.52,1094.24c-7.11-3.96-15.21-5.94-24.3-5.94c-7.81,0-14.86,1.72-21.15,5.16
				c-3.7,2.02-6.9,4.69-9.61,7.96v-11.9h-20.8v127.26h21.68v-45.29c2.64,3.04,5.66,5.54,9.09,7.45c6.17,3.44,13.11,5.16,20.8,5.16
				c9.09,0,17.19-1.98,24.3-5.94c7.11-3.96,12.73-9.53,16.87-16.69c4.14-7.17,6.21-15.58,6.21-25.26c0-9.55-2.07-17.94-6.21-25.17
				C780.25,1103.8,774.62,1098.21,767.52,1094.24z M764.72,1151.58c-2.45,4.43-5.74,7.87-9.88,10.31
				c-4.14,2.45-8.89,3.67-14.25,3.67c-5.13,0-9.79-1.22-13.98-3.67c-4.19-2.45-7.52-5.88-9.96-10.31
				c-2.45-4.43-3.67-9.55-3.67-15.38c0-5.94,1.22-11.1,3.67-15.47c2.45-4.37,5.77-7.75,9.96-10.14c4.2-2.39,8.85-3.58,13.98-3.58
				c5.36,0,10.11,1.2,14.25,3.58c4.14,2.39,7.43,5.77,9.88,10.14c2.45,4.37,3.67,9.53,3.67,15.47
				C768.39,1142.02,767.17,1147.15,764.72,1151.58z"/>
			<path class="st3" d="M832.37,1103.09v-13.56h-20.8v93.34h21.68v-45.1c0-9.79,2.45-17.07,7.34-21.85
				c4.89-4.78,11.54-7.17,19.93-7.17c0.7,0,1.46,0.03,2.27,0.09c0.81,0.06,1.63,0.15,2.45,0.26v-20.8c-8.74,0-16.14,1.66-22.2,4.98
				C838.55,1095.74,835,1099.01,832.37,1103.09z"/>
			<path class="st3" d="M947.91,1094.33c-7.11-4.02-15.21-6.03-24.3-6.03c-9.32,0-17.63,2.07-24.91,6.2
				c-7.28,4.14-13,9.79-17.13,16.96c-4.14,7.17-6.21,15.41-6.21,24.73c0,9.32,2.12,17.57,6.38,24.73c4.25,7.17,10.25,12.82,18,16.95
				c7.75,4.14,16.81,6.21,27.18,6.21c8.16,0,15.41-1.28,21.76-3.85c6.35-2.56,11.68-6.29,15.99-11.19l-11.89-13.63
				c-3.26,3.38-6.99,5.94-11.19,7.69c-4.2,1.75-8.91,2.62-14.16,2.62c-6.18,0-11.6-1.19-16.26-3.58
				c-4.66-2.39-8.25-5.74-10.75-10.05c-1.58-2.71-2.66-5.69-3.24-8.91h73.25c0.11-0.93,0.2-2.01,0.26-3.23
				c0.06-1.22,0.09-2.24,0.09-3.06c0-9.9-2.04-18.47-6.12-25.7C960.61,1103.98,955.02,1098.35,947.91,1094.33z M900.02,1119.24
				c2.21-4.19,5.39-7.43,9.53-9.7c4.14-2.27,8.83-3.41,14.07-3.41c5.36,0,10.02,1.14,13.98,3.41c3.96,2.27,7.08,5.48,9.35,9.61
				c1.59,2.9,2.59,6.08,3,9.53h-52.91C897.53,1125.24,898.51,1122.09,900.02,1119.24z"/>
			<path class="st3" d="M1067.83,1094.24c-7.11-3.96-15.21-5.94-24.3-5.94c-7.81,0-14.86,1.72-21.15,5.16
				c-3.7,2.02-6.9,4.69-9.61,7.97v-11.9h-20.8v127.26h21.68v-45.29c2.64,3.04,5.66,5.54,9.09,7.45c6.18,3.44,13.11,5.16,20.8,5.16
				c9.09,0,17.19-1.98,24.3-5.94c7.11-3.96,12.73-9.53,16.87-16.69c4.14-7.17,6.21-15.58,6.21-25.26c0-9.55-2.07-17.94-6.21-25.17
				C1080.56,1103.8,1074.93,1098.21,1067.83,1094.24z M1065.03,1151.58c-2.45,4.43-5.74,7.87-9.88,10.31
				c-4.14,2.45-8.89,3.67-14.25,3.67c-5.13,0-9.79-1.22-13.98-3.67c-4.2-2.45-7.52-5.88-9.96-10.31c-2.45-4.43-3.67-9.55-3.67-15.38
				c0-5.94,1.22-11.1,3.67-15.47c2.45-4.37,5.77-7.75,9.96-10.14c4.19-2.39,8.85-3.58,13.98-3.58c5.36,0,10.11,1.2,14.25,3.58
				c4.14,2.39,7.43,5.77,9.88,10.14c2.45,4.37,3.67,9.53,3.67,15.47C1068.7,1142.02,1067.48,1147.15,1065.03,1151.58z"/>
			<path class="st3" d="M1177.6,1098.09c-7.34-6.52-17.83-9.79-31.46-9.79c-7.46,0-14.63,0.99-21.5,2.97
				c-6.88,1.98-12.88,4.89-18,8.74l8.57,15.91c3.61-2.91,7.92-5.18,12.94-6.82c5.01-1.63,10.08-2.45,15.21-2.45
				c7.92,0,13.84,1.78,17.74,5.33c3.9,3.56,5.86,8.54,5.86,14.95v1.4h-24.3c-9.44,0-17.02,1.22-22.72,3.67
				c-5.71,2.45-9.82,5.77-12.32,9.96c-2.51,4.19-3.76,8.91-3.76,14.16c0,5.36,1.43,10.17,4.28,14.42c2.85,4.26,6.91,7.58,12.15,9.96
				c5.24,2.39,11.36,3.58,18.35,3.58c8.39,0,15.26-1.51,20.63-4.55c3.69-2.09,6.6-4.77,8.74-8.02v11.34h20.63v-54.71
				C1188.62,1114.64,1184.94,1104.62,1177.6,1098.09z M1157.59,1164.51c-4.26,2.45-9.06,3.67-14.42,3.67
				c-5.59,0-9.96-1.16-13.11-3.5c-3.15-2.33-4.72-5.42-4.72-9.26c0-3.61,1.31-6.61,3.93-9c2.62-2.39,7.6-3.58,14.95-3.58h22.72
				v10.84C1164.96,1158.46,1161.84,1162.07,1157.59,1164.51z"/>
			<rect x="1216.76" y="1089.52" class="st3" width="21.68" height="93.34"/>
			<path class="st3" d="M1336.49,1053.16v47.51c-2.6-2.93-5.56-5.35-8.92-7.22c-6.18-3.44-13.17-5.16-20.98-5.16
				c-8.98,0-17.04,1.98-24.21,5.94c-7.17,3.96-12.79,9.56-16.87,16.78c-4.08,7.23-6.12,15.62-6.12,25.17
				c0,9.67,2.04,18.09,6.12,25.26c4.08,7.17,9.7,12.73,16.87,16.69c7.17,3.96,15.24,5.94,24.21,5.94c8.15,0,15.29-1.72,21.41-5.16
				c3.72-2.09,6.95-4.87,9.7-8.32v12.25h20.8v-129.7H1336.49z M1333.26,1151.67c-2.51,4.49-5.83,7.93-9.96,10.31
				c-4.14,2.39-8.83,3.58-14.07,3.58c-5.24,0-9.94-1.19-14.07-3.58c-4.14-2.39-7.46-5.83-9.96-10.31
				c-2.51-4.49-3.76-9.64-3.76-15.47c0-5.94,1.25-11.1,3.76-15.47c2.5-4.37,5.83-7.75,9.96-10.14c4.14-2.39,8.83-3.58,14.07-3.58
				c5.24,0,9.93,1.2,14.07,3.58c4.14,2.39,7.46,5.77,9.96,10.14c2.5,4.37,3.76,9.53,3.76,15.47
				C1337.02,1142.02,1335.77,1147.18,1333.26,1151.67z"/>
		</g>
	</g>
	<g class="st2">
		<path class="st3" d="M449.69,936.43h-17.76H175.65c-18.79,0-34.16,15.37-34.16,34.16v2.02c0,18.79,15.37,34.16,34.16,34.16h139.41
			c-13,18.65-22.22,40.13-26.56,63.33h-58.89c-18.79,0-34.16,15.37-34.16,34.16v2.02c0,18.79,15.37,34.16,34.16,34.16h61
			c17.86,71.23,82.31,123.99,159.08,123.99c90.58,0,164-73.43,164-164S540.26,936.43,449.69,936.43z"/>
		<linearGradient id="SVGID_1_" gradientUnits="userSpaceOnUse" x1="452.6919" y1="1029.1648" x2="452.6919" y2="1193.7388">
			<stop  offset="0" style="stop-color:#5426D6"/>
			<stop  offset="1" style="stop-color:#4D87E2"/>
		</linearGradient>
		<path class="st4" d="M508.11,1058.27c-5.3-9.25-12.5-16.42-21.61-21.49c-9.11-5.07-19.48-7.61-31.12-7.61
			c-10,0-19.03,2.2-27.09,6.61c-4.74,2.59-8.84,6.01-12.32,10.2v-15.24h-26.65v163.01h27.76v-58.01c3.38,3.9,7.25,7.09,11.64,9.54
			c7.91,4.4,16.79,6.61,26.65,6.61c11.64,0,22.02-2.54,31.12-7.61c9.1-5.07,16.31-12.2,21.61-21.38c5.3-9.18,7.95-19.96,7.95-32.35
			C516.06,1078.28,513.41,1067.53,508.11,1058.27z M482.92,1110.22c-3.13,5.67-7.35,10.08-12.65,13.21
			c-5.3,3.13-11.39,4.7-18.25,4.7c-6.57,0-12.54-1.57-17.91-4.7c-5.37-3.13-9.63-7.54-12.76-13.21c-3.14-5.67-4.7-12.24-4.7-19.7
			c0-7.61,1.57-14.22,4.7-19.82c3.13-5.6,7.39-9.93,12.76-12.99c5.37-3.06,11.34-4.59,17.91-4.59c6.86,0,12.95,1.53,18.25,4.59
			c5.3,3.06,9.52,7.39,12.65,12.99c3.14,5.6,4.7,12.2,4.7,19.82C487.62,1097.98,486.06,1104.55,482.92,1110.22z"/>
	</g>
</g>
<g class="st1">
	<rect x="58.47" y="39.84" class="st5" width="55.87" height="55.87"/>
	<rect x="133.65" y="39.84" class="st6" width="55.87" height="55.87"/>
</g>
<g class="st1">
	<linearGradient id="SVGID_2_" gradientUnits="userSpaceOnUse" x1="684.2507" y1="128.366" x2="684.2507" y2="420.4023">
		<stop  offset="0" style="stop-color:#5426D6"/>
		<stop  offset="1" style="stop-color:#4D87E2"/>
	</linearGradient>
	<path class="st7" d="M748.44,128.37h-15.81H504.46c-16.73,0-30.42,13.69-30.42,30.42v1.8c0,16.73,13.69,30.42,30.42,30.42h124.12
		c-11.57,16.61-19.78,35.73-23.65,56.38H552.5c-16.73,0-30.42,13.69-30.42,30.42v1.8c0,16.73,13.69,30.42,30.42,30.42h54.31
		c15.9,63.42,73.28,110.39,141.63,110.39c80.64,0,146.02-65.37,146.02-146.02S829.09,128.37,748.44,128.37z"/>
	<path class="st8" d="M760.9,267.74l37.09-49.74h-15.48c-5.97-0.35-11.68,2.44-15.09,7.35l-19.56,26.39l-18.97-26.39
		c-3.41-4.91-9.12-7.69-15.09-7.35h-15.48l36.7,49.74l-40.16,54.23h14.67c5.97,0.35,11.68-2.44,15.09-7.35l23.24-30.77l54.42,75.2
		c3.37,4.94,9.1,7.73,15.07,7.35h15.92L760.9,267.74z"/>
</g>
<g class="st1">
	<g class="st2">
		<path class="st9" d="M539.12,484.3c-6.1-3.4-13.05-5.1-20.84-5.1c-6.7,0-12.75,1.48-18.14,4.42c-3.18,1.74-5.92,4.02-8.25,6.83
			v-10.21h-17.85v109.17h18.59v-38.85c2.26,2.61,4.85,4.75,7.8,6.39c5.3,2.95,11.25,4.42,17.84,4.42c7.8,0,14.74-1.7,20.84-5.1
			c6.1-3.4,10.92-8.17,14.47-14.32c3.55-6.15,5.32-13.37,5.32-21.67c0-8.2-1.78-15.39-5.32-21.59
			C550.04,492.5,545.22,487.7,539.12,484.3z M536.72,533.49c-2.1,3.8-4.93,6.75-8.47,8.85c-3.55,2.1-7.62,3.15-12.22,3.15
			c-4.4,0-8.4-1.05-12-3.15c-3.6-2.1-6.45-5.05-8.55-8.85c-2.1-3.8-3.15-8.2-3.15-13.2c0-5.1,1.05-9.52,3.15-13.27
			c2.1-3.75,4.95-6.65,8.55-8.7c3.6-2.05,7.6-3.07,12-3.07c4.6,0,8.67,1.03,12.22,3.07c3.55,2.05,6.37,4.95,8.47,8.7
			s3.15,8.17,3.15,13.27C539.87,525.29,538.82,529.69,536.72,533.49z"/>
		<path class="st9" d="M591.73,491.89v-11.64h-17.85v80.08h18.59v-38.69c0-8.4,2.1-14.64,6.3-18.74c4.2-4.1,9.9-6.15,17.09-6.15
			c0.6,0,1.25,0.03,1.95,0.07c0.7,0.05,1.4,0.13,2.1,0.22V479.2c-7.5,0-13.85,1.42-19.04,4.27
			C597.03,485.58,593.99,488.39,591.73,491.89z"/>
		<path class="st9" d="M687.83,484.38c-6.1-3.45-13.05-5.17-20.84-5.17c-8,0-15.12,1.78-21.37,5.32c-6.25,3.55-11.15,8.4-14.7,14.55
			c-3.55,6.15-5.32,13.22-5.32,21.22c0,8,1.82,15.07,5.47,21.22c3.65,6.15,8.8,11,15.45,14.54c6.65,3.55,14.42,5.32,23.32,5.32
			c7,0,13.22-1.1,18.67-3.3c5.45-2.2,10.02-5.4,13.72-9.6l-10.2-11.7c-2.8,2.9-6,5.1-9.6,6.6c-3.6,1.5-7.65,2.25-12.15,2.25
			c-5.3,0-9.95-1.02-13.95-3.07c-4-2.05-7.07-4.92-9.22-8.62c-1.36-2.33-2.28-4.88-2.78-7.65h62.84c0.1-0.8,0.17-1.73,0.22-2.77
			c0.05-1.05,0.08-1.92,0.08-2.62c0-8.5-1.75-15.84-5.25-22.04C698.72,492.65,693.92,487.83,687.83,484.38z M646.74,505.75
			c1.9-3.6,4.62-6.37,8.17-8.32c3.55-1.95,7.57-2.92,12.07-2.92c4.6,0,8.6,0.98,12,2.92c3.4,1.95,6.07,4.7,8.02,8.25
			c1.37,2.49,2.22,5.22,2.58,8.17h-45.39C644.61,510.89,645.45,508.19,646.74,505.75z"/>
		<path class="st9" d="M787.67,484.3c-6.1-3.4-13.05-5.1-20.84-5.1c-6.7,0-12.75,1.48-18.14,4.42c-3.18,1.74-5.92,4.02-8.25,6.83
			v-10.21h-17.84v109.17h18.59v-38.85c2.26,2.61,4.85,4.75,7.8,6.39c5.3,2.95,11.25,4.42,17.85,4.42c7.8,0,14.74-1.7,20.84-5.1
			c6.1-3.4,10.92-8.17,14.47-14.32c3.55-6.15,5.32-13.37,5.32-21.67c0-8.2-1.78-15.39-5.32-21.59
			C798.59,492.5,793.77,487.7,787.67,484.3z M785.27,533.49c-2.1,3.8-4.92,6.75-8.47,8.85c-3.55,2.1-7.62,3.15-12.22,3.15
			c-4.4,0-8.4-1.05-12-3.15c-3.6-2.1-6.45-5.05-8.55-8.85c-2.1-3.8-3.15-8.2-3.15-13.2c0-5.1,1.05-9.52,3.15-13.27
			c2.1-3.75,4.95-6.65,8.55-8.7c3.6-2.05,7.6-3.07,12-3.07c4.6,0,8.67,1.03,12.22,3.07c3.55,2.05,6.37,4.95,8.47,8.7
			s3.15,8.17,3.15,13.27C788.42,525.29,787.37,529.69,785.27,533.49z"/>
		<path class="st9" d="M878.82,487.6c-6.3-5.6-15.3-8.4-26.99-8.4c-6.4,0-12.55,0.85-18.45,2.55c-5.9,1.7-11.05,4.2-15.45,7.5
			l7.35,13.65c3.1-2.5,6.8-4.45,11.1-5.85c4.3-1.4,8.65-2.1,13.05-2.1c6.8,0,11.87,1.53,15.22,4.57c3.35,3.05,5.02,7.32,5.02,12.82
			v1.2h-20.84c-8.1,0-14.6,1.05-19.49,3.15c-4.9,2.1-8.42,4.95-10.57,8.55c-2.15,3.6-3.22,7.65-3.22,12.15
			c0,4.6,1.22,8.72,3.67,12.37c2.45,3.65,5.92,6.5,10.42,8.55c4.5,2.05,9.75,3.07,15.75,3.07c7.2,0,13.09-1.3,17.69-3.9
			c3.17-1.79,5.66-4.09,7.5-6.88v9.73h17.69v-46.94C888.27,501.8,885.12,493.2,878.82,487.6z M861.65,544.58
			c-3.65,2.1-7.77,3.15-12.37,3.15c-4.8,0-8.55-1-11.25-3c-2.7-2-4.05-4.65-4.05-7.95c0-3.1,1.13-5.67,3.37-7.72
			c2.25-2.05,6.52-3.07,12.82-3.07h19.49v9.3C867.97,539.39,865.3,542.49,861.65,544.58z"/>
		<rect x="906.37" y="480.25" class="st9" width="18.59" height="80.08"/>
		<path class="st9" d="M1007.07,449.06v40.76c-2.23-2.52-4.77-4.59-7.65-6.19c-5.3-2.95-11.3-4.42-17.99-4.42
			c-7.7,0-14.62,1.7-20.77,5.1c-6.15,3.4-10.97,8.2-14.47,14.4c-3.5,6.2-5.25,13.4-5.25,21.59c0,8.3,1.75,15.52,5.25,21.67
			c3.5,6.15,8.32,10.92,14.47,14.32c6.15,3.4,13.07,5.1,20.77,5.1c7,0,13.12-1.47,18.37-4.42c3.19-1.79,5.96-4.18,8.32-7.14v10.51
			h17.84V449.06H1007.07z M1004.29,533.56c-2.15,3.85-5,6.8-8.55,8.85c-3.55,2.05-7.57,3.07-12.07,3.07c-4.5,0-8.52-1.02-12.07-3.07
			c-3.55-2.05-6.4-5-8.55-8.85c-2.15-3.85-3.22-8.27-3.22-13.27c0-5.1,1.07-9.52,3.22-13.27c2.15-3.75,5-6.65,8.55-8.7
			c3.55-2.05,7.57-3.07,12.07-3.07c4.5,0,8.52,1.03,12.07,3.07c3.55,2.05,6.4,4.95,8.55,8.7c2.15,3.75,3.22,8.17,3.22,13.27
			C1007.52,525.29,1006.44,529.72,1004.29,533.56z"/>
	</g>
	<g class="st2">
		<linearGradient id="SVGID_3_" gradientUnits="userSpaceOnUse" x1="684.2507" y1="128.366" x2="684.2507" y2="420.4023">
			<stop  offset="0" style="stop-color:#5426D6"/>
			<stop  offset="1" style="stop-color:#4D87E2"/>
		</linearGradient>
		<path class="st10" d="M748.44,128.37h-15.81H504.46c-16.73,0-30.42,13.69-30.42,30.42v1.8c0,16.73,13.69,30.42,30.42,30.42h124.12
			c-11.57,16.61-19.78,35.73-23.65,56.38H552.5c-16.73,0-30.42,13.69-30.42,30.42v1.8c0,16.73,13.69,30.42,30.42,30.42h54.31
			c15.9,63.42,73.28,110.39,141.63,110.39c80.64,0,146.02-65.37,146.02-146.02S829.09,128.37,748.44,128.37z"/>
		<path class="st3" d="M760.9,267.74l37.09-49.74h-15.48c-5.97-0.35-11.68,2.44-15.09,7.35l-19.56,26.39l-18.97-26.39
			c-3.41-4.91-9.12-7.69-15.09-7.35h-15.48l36.7,49.74l-40.16,54.23h14.67c5.97,0.35,11.68-2.44,15.09-7.35l23.24-30.77l54.42,75.2
			c3.37,4.94,9.1,7.73,15.07,7.35h15.92L760.9,267.74z"/>
	</g>
</g>
<g class="st1">
	<g class="st2">
		<path class="st9" d="M763.45,307.44c-6.1-3.4-13.05-5.1-20.84-5.1c-6.7,0-12.75,1.48-18.14,4.42c-3.18,1.74-5.92,4.02-8.25,6.83
			V303.4h-17.85v109.17h18.59v-38.85c2.26,2.61,4.85,4.75,7.8,6.39c5.3,2.95,11.25,4.42,17.84,4.42c7.8,0,14.74-1.7,20.84-5.1
			c6.1-3.4,10.92-8.17,14.47-14.32c3.55-6.15,5.32-13.37,5.32-21.67c0-8.2-1.78-15.39-5.32-21.59
			C774.38,315.64,769.55,310.84,763.45,307.44z M761.05,356.63c-2.1,3.8-4.93,6.75-8.47,8.85c-3.55,2.1-7.62,3.15-12.22,3.15
			c-4.4,0-8.4-1.05-12-3.15c-3.6-2.1-6.45-5.05-8.55-8.85c-2.1-3.8-3.15-8.2-3.15-13.2c0-5.1,1.05-9.52,3.15-13.27
			s4.95-6.65,8.55-8.7c3.6-2.05,7.6-3.07,12-3.07c4.6,0,8.67,1.03,12.22,3.07c3.55,2.05,6.37,4.95,8.47,8.7s3.15,8.17,3.15,13.27
			C764.2,348.43,763.15,352.83,761.05,356.63z"/>
		<path class="st9" d="M816.06,315.03V303.4h-17.85v80.08h18.59v-38.69c0-8.4,2.1-14.64,6.3-18.74c4.2-4.1,9.9-6.15,17.09-6.15
			c0.6,0,1.25,0.03,1.95,0.07c0.7,0.05,1.4,0.13,2.1,0.22v-17.84c-7.5,0-13.85,1.42-19.04,4.27
			C821.37,308.73,818.32,311.53,816.06,315.03z"/>
		<path class="st9" d="M912.16,307.52c-6.1-3.45-13.05-5.17-20.84-5.17c-8,0-15.12,1.78-21.37,5.32c-6.25,3.55-11.15,8.4-14.7,14.55
			c-3.55,6.15-5.32,13.22-5.32,21.22c0,8,1.82,15.07,5.47,21.22c3.65,6.15,8.8,11,15.45,14.54c6.65,3.55,14.42,5.32,23.32,5.32
			c7,0,13.22-1.1,18.67-3.3c5.45-2.2,10.02-5.4,13.72-9.6l-10.2-11.7c-2.8,2.9-6,5.1-9.6,6.6c-3.6,1.5-7.65,2.25-12.15,2.25
			c-5.3,0-9.95-1.02-13.95-3.07c-4-2.05-7.07-4.92-9.22-8.62c-1.36-2.33-2.28-4.88-2.78-7.65h62.84c0.1-0.8,0.17-1.73,0.22-2.77
			c0.05-1.05,0.08-1.92,0.08-2.62c0-8.5-1.75-15.84-5.25-22.04C923.06,315.79,918.26,310.97,912.16,307.52z M871.07,328.89
			c1.9-3.6,4.62-6.37,8.17-8.32c3.55-1.95,7.57-2.92,12.07-2.92c4.6,0,8.6,0.98,12,2.92c3.4,1.95,6.07,4.7,8.02,8.25
			c1.37,2.49,2.22,5.22,2.58,8.17h-45.39C868.94,334.03,869.78,331.33,871.07,328.89z"/>
		<path class="st9" d="M1012.01,307.44c-6.1-3.4-13.05-5.1-20.84-5.1c-6.7,0-12.75,1.48-18.14,4.42c-3.18,1.74-5.92,4.02-8.25,6.83
			V303.4h-17.84v109.17h18.59v-38.85c2.26,2.61,4.85,4.75,7.8,6.39c5.3,2.95,11.25,4.42,17.85,4.42c7.8,0,14.74-1.7,20.84-5.1
			c6.1-3.4,10.92-8.17,14.47-14.32c3.55-6.15,5.32-13.37,5.32-21.67c0-8.2-1.78-15.39-5.32-21.59
			C1022.93,315.64,1018.1,310.84,1012.01,307.44z M1009.61,356.63c-2.1,3.8-4.92,6.75-8.47,8.85c-3.55,2.1-7.62,3.15-12.22,3.15
			c-4.4,0-8.4-1.05-12-3.15c-3.6-2.1-6.45-5.05-8.55-8.85c-2.1-3.8-3.15-8.2-3.15-13.2c0-5.1,1.05-9.52,3.15-13.27
			c2.1-3.75,4.95-6.65,8.55-8.7c3.6-2.05,7.6-3.07,12-3.07c4.6,0,8.67,1.03,12.22,3.07c3.55,2.05,6.37,4.95,8.47,8.7
			s3.15,8.17,3.15,13.27C1012.76,348.43,1011.71,352.83,1009.61,356.63z"/>
		<path class="st9" d="M1103.16,310.74c-6.3-5.6-15.3-8.4-26.99-8.4c-6.4,0-12.55,0.85-18.45,2.55c-5.9,1.7-11.05,4.2-15.45,7.5
			l7.35,13.65c3.1-2.5,6.8-4.45,11.1-5.85c4.3-1.4,8.65-2.1,13.05-2.1c6.8,0,11.87,1.53,15.22,4.57c3.35,3.05,5.02,7.32,5.02,12.82
			v1.2h-20.84c-8.1,0-14.6,1.05-19.49,3.15c-4.9,2.1-8.42,4.95-10.57,8.55c-2.15,3.6-3.22,7.65-3.22,12.15
			c0,4.6,1.22,8.72,3.67,12.37c2.45,3.65,5.92,6.5,10.42,8.55c4.5,2.05,9.75,3.07,15.75,3.07c7.2,0,13.1-1.3,17.69-3.9
			c3.17-1.79,5.66-4.09,7.5-6.88v9.73h17.69v-46.94C1112.6,324.94,1109.45,316.34,1103.16,310.74z M1085.99,367.73
			c-3.65,2.1-7.77,3.15-12.37,3.15c-4.8,0-8.55-1-11.25-3c-2.7-2-4.05-4.65-4.05-7.95c0-3.1,1.13-5.67,3.37-7.72
			c2.25-2.05,6.52-3.07,12.82-3.07h19.49v9.3C1092.31,362.53,1089.64,365.63,1085.99,367.73z"/>
		<rect x="1130.7" y="303.4" class="st9" width="18.59" height="80.08"/>
		<path class="st9" d="M1231.4,272.2v40.76c-2.23-2.52-4.77-4.59-7.65-6.19c-5.3-2.95-11.3-4.42-17.99-4.42
			c-7.7,0-14.62,1.7-20.77,5.1c-6.15,3.4-10.97,8.2-14.47,14.4c-3.5,6.2-5.25,13.4-5.25,21.59c0,8.3,1.75,15.52,5.25,21.67
			c3.5,6.15,8.32,10.92,14.47,14.32c6.15,3.4,13.07,5.1,20.77,5.1c7,0,13.12-1.47,18.37-4.42c3.19-1.79,5.96-4.18,8.32-7.14v10.51
			h17.84V272.2H1231.4z M1228.63,356.7c-2.15,3.85-5,6.8-8.55,8.85c-3.55,2.05-7.57,3.07-12.07,3.07c-4.5,0-8.52-1.02-12.07-3.07
			c-3.55-2.05-6.4-5-8.55-8.85c-2.15-3.85-3.22-8.27-3.22-13.27c0-5.1,1.07-9.52,3.22-13.27c2.15-3.75,5-6.65,8.55-8.7
			c3.55-2.05,7.57-3.07,12.07-3.07c4.5,0,8.52,1.03,12.07,3.07c3.55,2.05,6.4,4.95,8.55,8.7c2.15,3.75,3.22,8.17,3.22,13.27
			C1231.85,348.43,1230.78,352.86,1228.63,356.7z"/>
	</g>
	<g class="st2">
		<linearGradient id="SVGID_4_" gradientUnits="userSpaceOnUse" x1="397.2853" y1="196.3656" x2="397.2853" y2="488.402">
			<stop  offset="0" style="stop-color:#5426D6"/>
			<stop  offset="1" style="stop-color:#4D87E2"/>
		</linearGradient>
		<path class="st11" d="M461.48,196.37h-15.81H217.49c-16.73,0-30.42,13.69-30.42,30.42v1.8c0,16.73,13.69,30.42,30.42,30.42h124.12
			c-11.57,16.61-19.78,35.73-23.65,56.38h-52.43c-16.73,0-30.42,13.69-30.42,30.42v1.8c0,16.73,13.69,30.42,30.42,30.42h54.31
			c15.9,63.42,73.28,110.39,141.63,110.39c80.64,0,146.02-65.37,146.02-146.02S542.12,196.37,461.48,196.37z"/>
		<path class="st3" d="M473.93,335.74l37.09-49.74h-15.48c-5.97-0.35-11.68,2.44-15.09,7.35l-19.56,26.39l-18.97-26.39
			c-3.41-4.91-9.12-7.69-15.09-7.35h-15.48l36.7,49.74l-40.16,54.23h14.67c5.97,0.35,11.68-2.44,15.09-7.35l23.24-30.77l54.42,75.2
			c3.37,4.94,9.1,7.73,15.07,7.35h15.92L473.93,335.74z"/>
	</g>
</g>
<g>
	<path class="st3" d="M730.35,869.53h-15.81H486.36c-16.73,0-30.42,13.69-30.42,30.42v1.8c0,16.73,13.69,30.42,30.42,30.42h124.12
		c-11.57,16.61-19.78,35.73-23.65,56.38H534.4c-16.73,0-30.42,13.69-30.42,30.42v1.8c0,16.73,13.69,30.42,30.42,30.42h54.31
		c15.9,63.42,73.28,110.39,141.63,110.39c80.64,0,146.02-65.37,146.02-146.02S810.99,869.53,730.35,869.53z"/>
	<linearGradient id="SVGID_5_" gradientUnits="userSpaceOnUse" x1="745.9636" y1="959.1462" x2="745.9636" y2="1107.6094">
		<stop  offset="0" style="stop-color:#5426D6"/>
		<stop  offset="1" style="stop-color:#4D87E2"/>
	</linearGradient>
	<path class="st12" d="M742.8,1008.91l37.09-49.74h-15.48c-5.97-0.35-11.68,2.44-15.09,7.35l-19.56,26.39l-18.97-26.39
		c-3.41-4.91-9.12-7.69-15.09-7.35h-15.48l36.7,49.74l-40.16,54.23h14.67c5.97,0.35,11.68-2.44,15.09-7.35l23.24-30.77l54.42,75.2
		c3.37,4.94,9.1,7.73,15.07,7.35h15.92L742.8,1008.91z"/>
</g>
<g class="st1">
	<g class="st2">
		<path class="st3" d="M763.45,1090.31c-6.1-3.4-13.05-5.1-20.84-5.1c-6.7,0-12.75,1.48-18.14,4.42c-3.18,1.74-5.92,4.02-8.25,6.83
			v-10.21h-17.85v109.17h18.59v-38.85c2.26,2.61,4.85,4.75,7.8,6.39c5.3,2.95,11.25,4.42,17.84,4.42c7.8,0,14.74-1.7,20.84-5.1
			c6.1-3.4,10.92-8.17,14.47-14.32c3.55-6.15,5.32-13.37,5.32-21.67c0-8.2-1.78-15.39-5.32-21.59
			C774.38,1098.51,769.55,1093.71,763.45,1090.31z M761.05,1139.49c-2.1,3.8-4.93,6.75-8.47,8.85c-3.55,2.1-7.62,3.15-12.22,3.15
			c-4.4,0-8.4-1.05-12-3.15c-3.6-2.1-6.45-5.05-8.55-8.85c-2.1-3.8-3.15-8.2-3.15-13.2c0-5.1,1.05-9.52,3.15-13.27
			c2.1-3.75,4.95-6.65,8.55-8.7c3.6-2.05,7.6-3.07,12-3.07c4.6,0,8.67,1.03,12.22,3.07c3.55,2.05,6.37,4.95,8.47,8.7
			c2.1,3.75,3.15,8.17,3.15,13.27C764.2,1131.3,763.15,1135.69,761.05,1139.49z"/>
		<path class="st3" d="M816.06,1097.9v-11.64h-17.85v80.08h18.59v-38.69c0-8.4,2.1-14.64,6.3-18.74c4.2-4.1,9.9-6.15,17.09-6.15
			c0.6,0,1.25,0.03,1.95,0.07c0.7,0.05,1.4,0.13,2.1,0.22v-17.84c-7.5,0-13.85,1.42-19.04,4.27
			C821.37,1091.59,818.32,1094.4,816.06,1097.9z"/>
		<path class="st3" d="M912.16,1090.38c-6.1-3.45-13.05-5.17-20.84-5.17c-8,0-15.12,1.78-21.37,5.32
			c-6.25,3.55-11.15,8.4-14.7,14.55c-3.55,6.15-5.32,13.22-5.32,21.22c0,8,1.82,15.07,5.47,21.22c3.65,6.15,8.8,11,15.45,14.54
			c6.65,3.55,14.42,5.32,23.32,5.32c7,0,13.22-1.1,18.67-3.3c5.45-2.2,10.02-5.4,13.72-9.6l-10.2-11.7c-2.8,2.9-6,5.1-9.6,6.6
			c-3.6,1.5-7.65,2.25-12.15,2.25c-5.3,0-9.95-1.02-13.95-3.07c-4-2.05-7.07-4.92-9.22-8.62c-1.36-2.33-2.28-4.88-2.78-7.65h62.84
			c0.1-0.8,0.17-1.73,0.22-2.77c0.05-1.05,0.08-1.92,0.08-2.62c0-8.5-1.75-15.84-5.25-22.04
			C923.06,1098.66,918.26,1093.83,912.16,1090.38z M871.07,1111.75c1.9-3.6,4.62-6.37,8.17-8.32c3.55-1.95,7.57-2.92,12.07-2.92
			c4.6,0,8.6,0.97,12,2.92c3.4,1.95,6.07,4.7,8.02,8.25c1.37,2.49,2.22,5.22,2.58,8.17h-45.39
			C868.94,1116.9,869.78,1114.19,871.07,1111.75z"/>
		<path class="st3" d="M1012.01,1090.31c-6.1-3.4-13.05-5.1-20.84-5.1c-6.7,0-12.75,1.48-18.14,4.42c-3.18,1.74-5.92,4.02-8.25,6.83
			v-10.21h-17.84v109.17h18.59v-38.85c2.26,2.61,4.85,4.75,7.8,6.39c5.3,2.95,11.25,4.42,17.85,4.42c7.8,0,14.74-1.7,20.84-5.1
			c6.1-3.4,10.92-8.17,14.47-14.32c3.55-6.15,5.32-13.37,5.32-21.67c0-8.2-1.78-15.39-5.32-21.59
			C1022.93,1098.51,1018.1,1093.71,1012.01,1090.31z M1009.61,1139.49c-2.1,3.8-4.92,6.75-8.47,8.85c-3.55,2.1-7.62,3.15-12.22,3.15
			c-4.4,0-8.4-1.05-12-3.15c-3.6-2.1-6.45-5.05-8.55-8.85c-2.1-3.8-3.15-8.2-3.15-13.2c0-5.1,1.05-9.52,3.15-13.27
			c2.1-3.75,4.95-6.65,8.55-8.7c3.6-2.05,7.6-3.07,12-3.07c4.6,0,8.67,1.03,12.22,3.07c3.55,2.05,6.37,4.95,8.47,8.7
			c2.1,3.75,3.15,8.17,3.15,13.27C1012.76,1131.3,1011.71,1135.69,1009.61,1139.49z"/>
		<path class="st3" d="M1103.16,1093.61c-6.3-5.6-15.3-8.4-26.99-8.4c-6.4,0-12.55,0.85-18.45,2.55c-5.9,1.7-11.05,4.2-15.45,7.5
			l7.35,13.65c3.1-2.5,6.8-4.45,11.1-5.85c4.3-1.4,8.65-2.1,13.05-2.1c6.8,0,11.87,1.53,15.22,4.57c3.35,3.05,5.02,7.32,5.02,12.82
			v1.2h-20.84c-8.1,0-14.6,1.05-19.49,3.15c-4.9,2.1-8.42,4.95-10.57,8.55c-2.15,3.6-3.22,7.65-3.22,12.15
			c0,4.6,1.22,8.72,3.67,12.37c2.45,3.65,5.92,6.5,10.42,8.55c4.5,2.05,9.75,3.07,15.75,3.07c7.2,0,13.1-1.3,17.69-3.9
			c3.17-1.79,5.66-4.09,7.5-6.88v9.73h17.69v-46.94C1112.6,1107.8,1109.45,1099.21,1103.16,1093.61z M1085.99,1150.59
			c-3.65,2.1-7.77,3.15-12.37,3.15c-4.8,0-8.55-1-11.25-3c-2.7-2-4.05-4.65-4.05-7.95c0-3.1,1.13-5.67,3.37-7.72
			c2.25-2.05,6.52-3.07,12.82-3.07h19.49v9.3C1092.31,1145.39,1089.64,1148.49,1085.99,1150.59z"/>
		<rect x="1130.7" y="1086.26" class="st3" width="18.59" height="80.08"/>
		<path class="st3" d="M1231.4,1055.07v40.76c-2.23-2.52-4.77-4.59-7.65-6.19c-5.3-2.95-11.3-4.42-17.99-4.42
			c-7.7,0-14.62,1.7-20.77,5.1c-6.15,3.4-10.97,8.2-14.47,14.4c-3.5,6.2-5.25,13.4-5.25,21.59c0,8.3,1.75,15.52,5.25,21.67
			c3.5,6.15,8.32,10.92,14.47,14.32c6.15,3.4,13.07,5.1,20.77,5.1c7,0,13.12-1.47,18.37-4.42c3.19-1.79,5.96-4.18,8.32-7.14v10.51
			h17.84v-111.27H1231.4z M1228.63,1139.57c-2.15,3.85-5,6.8-8.55,8.85c-3.55,2.05-7.57,3.07-12.07,3.07
			c-4.5,0-8.52-1.02-12.07-3.07c-3.55-2.05-6.4-5-8.55-8.85c-2.15-3.85-3.22-8.27-3.22-13.27c0-5.1,1.07-9.52,3.22-13.27
			c2.15-3.75,5-6.65,8.55-8.7c3.55-2.05,7.57-3.07,12.07-3.07c4.5,0,8.52,1.03,12.07,3.07c3.55,2.05,6.4,4.95,8.55,8.7
			c2.15,3.75,3.22,8.17,3.22,13.27C1231.85,1131.3,1230.78,1135.72,1228.63,1139.57z"/>
	</g>
	<g class="st2">
		<path class="st3" d="M461.48,979.23h-15.81H217.49c-16.73,0-30.42,13.69-30.42,30.42v1.8c0,16.73,13.69,30.42,30.42,30.42h124.12
			c-11.57,16.61-19.78,35.73-23.65,56.38h-52.43c-16.73,0-30.42,13.69-30.42,30.42v1.8c0,16.73,13.69,30.42,30.42,30.42h54.31
			c15.9,63.42,73.28,110.39,141.63,110.39c80.64,0,146.02-65.37,146.02-146.02C607.5,1044.6,542.12,979.23,461.48,979.23z"/>
		<linearGradient id="SVGID_6_" gradientUnits="userSpaceOnUse" x1="477.0962" y1="1068.8403" x2="477.0962" y2="1217.3035">
			<stop  offset="0" style="stop-color:#5426D6"/>
			<stop  offset="1" style="stop-color:#4D87E2"/>
		</linearGradient>
		<path class="st13" d="M473.93,1118.6l37.09-49.74h-15.48c-5.97-0.35-11.68,2.44-15.09,7.35l-19.56,26.39l-18.97-26.39
			c-3.41-4.91-9.12-7.69-15.09-7.35h-15.48l36.7,49.74l-40.16,54.23h14.67c5.97,0.35,11.68-2.44,15.09-7.35l23.24-30.77l54.42,75.2
			c3.37,4.94,9.1,7.73,15.07,7.35h15.92L473.93,1118.6z"/>
	</g>
</g>
<g class="st1">
	<g class="st2">
		<path class="st3" d="M480.02,1122.47c-6.1-3.4-13.05-5.1-20.84-5.1c-6.7,0-12.75,1.48-18.14,4.42c-3.18,1.74-5.92,4.02-8.25,6.83
			v-10.21h-17.85v109.17h18.59v-38.85c2.26,2.61,4.85,4.75,7.8,6.39c5.3,2.95,11.25,4.42,17.84,4.42c7.8,0,14.74-1.7,20.84-5.1
			c6.1-3.4,10.92-8.17,14.47-14.32c3.55-6.15,5.32-13.37,5.32-21.67c0-8.2-1.78-15.39-5.32-21.59
			C490.94,1130.67,486.12,1125.87,480.02,1122.47z M477.62,1171.66c-2.1,3.8-4.93,6.75-8.47,8.85c-3.55,2.1-7.62,3.15-12.22,3.15
			c-4.4,0-8.4-1.05-12-3.15c-3.6-2.1-6.45-5.05-8.55-8.85c-2.1-3.8-3.15-8.2-3.15-13.2c0-5.1,1.05-9.52,3.15-13.27
			s4.95-6.65,8.55-8.7c3.6-2.05,7.6-3.07,12-3.07c4.6,0,8.67,1.03,12.22,3.07c3.55,2.05,6.37,4.95,8.47,8.7s3.15,8.17,3.15,13.27
			C480.77,1163.46,479.72,1167.86,477.62,1171.66z"/>
		<path class="st3" d="M532.63,1130.06v-11.64h-17.85v80.08h18.59v-38.69c0-8.4,2.1-14.64,6.3-18.74c4.2-4.1,9.9-6.15,17.09-6.15
			c0.6,0,1.25,0.03,1.95,0.07c0.7,0.05,1.4,0.13,2.1,0.22v-17.84c-7.5,0-13.85,1.42-19.04,4.27
			C537.93,1123.75,534.89,1126.56,532.63,1130.06z"/>
		<path class="st3" d="M628.73,1122.55c-6.1-3.45-13.05-5.17-20.84-5.17c-8,0-15.12,1.78-21.37,5.32
			c-6.25,3.55-11.15,8.4-14.7,14.55c-3.55,6.15-5.32,13.22-5.32,21.22c0,8,1.82,15.07,5.47,21.22c3.65,6.15,8.8,11,15.45,14.54
			c6.65,3.55,14.42,5.32,23.32,5.32c7,0,13.22-1.1,18.67-3.3c5.45-2.2,10.02-5.4,13.72-9.6l-10.2-11.7c-2.8,2.9-6,5.1-9.6,6.6
			c-3.6,1.5-7.65,2.25-12.15,2.25c-5.3,0-9.95-1.02-13.95-3.07c-4-2.05-7.07-4.92-9.22-8.62c-1.36-2.33-2.28-4.88-2.78-7.65h62.84
			c0.1-0.8,0.17-1.73,0.22-2.77c0.05-1.05,0.08-1.92,0.08-2.62c0-8.5-1.75-15.84-5.25-22.04
			C639.62,1130.82,634.83,1126,628.73,1122.55z M587.64,1143.92c1.9-3.6,4.62-6.37,8.17-8.32c3.55-1.95,7.57-2.92,12.07-2.92
			c4.6,0,8.6,0.97,12,2.92c3.4,1.95,6.07,4.7,8.02,8.25c1.37,2.49,2.22,5.22,2.58,8.17H585.1
			C585.51,1149.06,586.35,1146.36,587.64,1143.92z"/>
		<path class="st3" d="M728.57,1122.47c-6.1-3.4-13.05-5.1-20.84-5.1c-6.7,0-12.75,1.48-18.14,4.42c-3.18,1.74-5.92,4.02-8.25,6.83
			v-10.21h-17.84v109.17h18.59v-38.85c2.26,2.61,4.85,4.75,7.8,6.39c5.3,2.95,11.25,4.42,17.85,4.42c7.8,0,14.74-1.7,20.84-5.1
			c6.1-3.4,10.92-8.17,14.47-14.32c3.55-6.15,5.32-13.37,5.32-21.67c0-8.2-1.78-15.39-5.32-21.59
			C739.5,1130.67,734.67,1125.87,728.57,1122.47z M726.17,1171.66c-2.1,3.8-4.92,6.75-8.47,8.85c-3.55,2.1-7.62,3.15-12.22,3.15
			c-4.4,0-8.4-1.05-12-3.15c-3.6-2.1-6.45-5.05-8.55-8.85c-2.1-3.8-3.15-8.2-3.15-13.2c0-5.1,1.05-9.52,3.15-13.27
			c2.1-3.75,4.95-6.65,8.55-8.7c3.6-2.05,7.6-3.07,12-3.07c4.6,0,8.67,1.03,12.22,3.07c3.55,2.05,6.37,4.95,8.47,8.7
			s3.15,8.17,3.15,13.27C729.32,1163.46,728.27,1167.86,726.17,1171.66z"/>
		<path class="st3" d="M819.72,1125.77c-6.3-5.6-15.3-8.4-26.99-8.4c-6.4,0-12.55,0.85-18.45,2.55c-5.9,1.7-11.05,4.2-15.45,7.5
			l7.35,13.65c3.1-2.5,6.8-4.45,11.1-5.85c4.3-1.4,8.65-2.1,13.05-2.1c6.8,0,11.87,1.53,15.22,4.57c3.35,3.05,5.02,7.32,5.02,12.82
			v1.2h-20.84c-8.1,0-14.6,1.05-19.49,3.15c-4.9,2.1-8.42,4.95-10.57,8.55c-2.15,3.6-3.22,7.65-3.22,12.15
			c0,4.6,1.22,8.72,3.67,12.37c2.45,3.65,5.92,6.5,10.42,8.55c4.5,2.05,9.75,3.07,15.75,3.07c7.2,0,13.1-1.3,17.69-3.9
			c3.17-1.79,5.66-4.09,7.5-6.88v9.73h17.69v-46.94C829.17,1139.97,826.02,1131.37,819.72,1125.77z M802.55,1182.75
			c-3.65,2.1-7.77,3.15-12.37,3.15c-4.8,0-8.55-1-11.25-3c-2.7-2-4.05-4.65-4.05-7.95c0-3.1,1.13-5.67,3.37-7.72
			c2.25-2.05,6.52-3.07,12.82-3.07h19.49v9.3C808.88,1177.56,806.2,1180.65,802.55,1182.75z"/>
		<rect x="847.27" y="1118.42" class="st3" width="18.59" height="80.08"/>
		<path class="st3" d="M947.97,1087.23v40.76c-2.23-2.52-4.77-4.59-7.65-6.19c-5.3-2.95-11.3-4.42-17.99-4.42
			c-7.7,0-14.62,1.7-20.77,5.1c-6.15,3.4-10.97,8.2-14.47,14.4c-3.5,6.2-5.25,13.4-5.25,21.59c0,8.3,1.75,15.52,5.25,21.67
			c3.5,6.15,8.32,10.92,14.47,14.32c6.15,3.4,13.07,5.1,20.77,5.1c7,0,13.12-1.47,18.37-4.42c3.19-1.79,5.96-4.18,8.32-7.14v10.51
			h17.84v-111.27H947.97z M945.19,1171.73c-2.15,3.85-5,6.8-8.55,8.85c-3.55,2.05-7.57,3.07-12.07,3.07c-4.5,0-8.52-1.02-12.07-3.07
			c-3.55-2.05-6.4-5-8.55-8.85c-2.15-3.85-3.22-8.27-3.22-13.27c0-5.1,1.07-9.52,3.22-13.27c2.15-3.75,5-6.65,8.55-8.7
			c3.55-2.05,7.57-3.07,12.07-3.07c4.5,0,8.52,1.03,12.07,3.07c3.55,2.05,6.4,4.95,8.55,8.7c2.15,3.75,3.22,8.17,3.22,13.27
			C948.42,1163.46,947.34,1167.88,945.19,1171.73z"/>
	</g>
	<g class="st2">
		<path class="st3" d="M689.35,766.53h-15.81H445.36c-16.73,0-30.42,13.69-30.42,30.42v1.8c0,16.73,13.69,30.42,30.42,30.42h124.12
			c-11.57,16.61-19.78,35.73-23.65,56.38H493.4c-16.73,0-30.42,13.69-30.42,30.42v1.8c0,16.73,13.69,30.42,30.42,30.42h54.31
			c15.9,63.42,73.28,110.39,141.63,110.39c80.64,0,146.02-65.37,146.02-146.02S769.99,766.53,689.35,766.53z"/>
		<linearGradient id="SVGID_7_" gradientUnits="userSpaceOnUse" x1="704.9636" y1="856.1462" x2="704.9636" y2="1004.6093">
			<stop  offset="0" style="stop-color:#5426D6"/>
			<stop  offset="1" style="stop-color:#4D87E2"/>
		</linearGradient>
		<path class="st14" d="M701.8,905.91l37.09-49.74h-15.48c-5.97-0.35-11.68,2.44-15.09,7.35l-19.56,26.39l-18.97-26.39
			c-3.41-4.91-9.12-7.69-15.09-7.35h-15.48l36.7,49.74l-40.16,54.23h14.67c5.97,0.35,11.68-2.44,15.09-7.35l23.24-30.77l54.42,75.2
			c3.37,4.94,9.1,7.73,15.07,7.35h15.92L701.8,905.91z"/>
	</g>
</g>
</svg>
