<?xml version="1.0" encoding="utf-8"?>
<!-- Generator: Adobe Illustrator 23.0.3, SVG Export Plug-In . SVG Version: 6.00 Build 0)  -->
<svg version="1.1" id="Capa_1" xmlns="http://www.w3.org/2000/svg" xmlns:xlink="http://www.w3.org/1999/xlink" x="0px" y="0px"
	 viewBox="0 0 1200 500" style="enable-background:new 0 0 1200 500;" xml:space="preserve">
<style type="text/css">
	.st0{display:none;}
	.st1{display:inline;}
	.st2{fill:#221D30;}
	.st3{fill:url(#SVGID_1_);}
	.st4{fill:#FFFFFF;}
	.st5{fill:url(#SVGID_2_);}
</style>
<g class="st0">
	<g class="st1">
		<path class="st2" d="M655.18,205.32c-6.61-3.68-14.13-5.52-22.58-5.52c-7.26,0-13.81,1.6-19.65,4.79
			c-3.44,1.88-6.41,4.36-8.93,7.4v-11.06h-19.33v118.25h20.14V277.1c2.45,2.83,5.26,5.15,8.45,6.92c5.74,3.19,12.18,4.79,19.33,4.79
			c8.45,0,15.97-1.84,22.58-5.52c6.6-3.68,11.83-8.85,15.67-15.51c3.84-6.66,5.77-14.48,5.77-23.47c0-8.88-1.92-16.67-5.77-23.39
			C667.01,214.2,661.78,209,655.18,205.32z M652.58,258.6c-2.27,4.12-5.33,7.31-9.18,9.58c-3.85,2.27-8.26,3.41-13.24,3.41
			c-4.77,0-9.1-1.14-12.99-3.41c-3.9-2.27-6.98-5.47-9.26-9.58c-2.27-4.11-3.41-8.88-3.41-14.29c0-5.52,1.14-10.31,3.41-14.38
			c2.27-4.06,5.36-7.2,9.26-9.42c3.9-2.22,8.23-3.33,12.99-3.33c4.98,0,9.39,1.11,13.24,3.33c3.84,2.22,6.9,5.36,9.18,9.42
			c2.27,4.06,3.41,8.85,3.41,14.38C655.99,249.72,654.85,254.48,652.58,258.6z"/>
		<path class="st2" d="M712.17,213.54v-12.6h-19.33v86.74h20.14v-41.91c0-9.1,2.27-15.86,6.82-20.3c4.55-4.44,10.72-6.66,18.52-6.66
			c0.65,0,1.35,0.03,2.11,0.08c0.76,0.06,1.51,0.14,2.27,0.24V199.8c-8.12,0-15,1.54-20.63,4.63
			C717.91,206.71,714.61,209.75,712.17,213.54z"/>
		<path class="st2" d="M816.26,205.4c-6.61-3.74-14.13-5.6-22.58-5.6c-8.66,0-16.38,1.92-23.15,5.77
			c-6.77,3.85-12.08,9.1-15.92,15.76c-3.85,6.66-5.77,14.32-5.77,22.98c0,8.66,1.97,16.32,5.93,22.98
			c3.95,6.66,9.53,11.91,16.73,15.76c7.2,3.85,15.62,5.77,25.26,5.77c7.58,0,14.32-1.19,20.22-3.57c5.9-2.38,10.85-5.85,14.86-10.4
			l-11.05-12.67c-3.03,3.14-6.5,5.52-10.4,7.15c-3.9,1.62-8.28,2.44-13.16,2.44c-5.74,0-10.78-1.11-15.11-3.33
			c-4.33-2.22-7.66-5.33-9.99-9.34c-1.47-2.52-2.47-5.29-3.01-8.28h68.07c0.11-0.87,0.19-1.87,0.24-3.01
			c0.05-1.14,0.08-2.08,0.08-2.84c0-9.2-1.9-17.16-5.68-23.88C828.06,214.36,822.86,209.14,816.26,205.4z M771.75,228.55
			c2.06-3.9,5.01-6.9,8.85-9.02c3.84-2.11,8.2-3.17,13.08-3.17c4.98,0,9.31,1.06,12.99,3.17c3.68,2.11,6.58,5.09,8.69,8.93
			c1.48,2.7,2.4,5.65,2.79,8.85H769C769.44,234.12,770.36,231.19,771.75,228.55z"/>
		<path class="st2" d="M924.41,205.32c-6.61-3.68-14.13-5.52-22.58-5.52c-7.26,0-13.81,1.6-19.65,4.79
			c-3.44,1.88-6.41,4.36-8.93,7.4v-11.06h-19.33v118.25h20.14V277.1c2.45,2.83,5.26,5.15,8.45,6.92c5.74,3.19,12.18,4.79,19.33,4.79
			c8.45,0,15.97-1.84,22.58-5.52c6.6-3.68,11.83-8.85,15.67-15.51c3.84-6.66,5.77-14.48,5.77-23.47c0-8.88-1.92-16.67-5.77-23.39
			C936.24,214.2,931.01,209,924.41,205.32z M921.81,258.6c-2.27,4.12-5.33,7.31-9.18,9.58c-3.85,2.27-8.26,3.41-13.24,3.41
			c-4.77,0-9.1-1.14-12.99-3.41c-3.9-2.27-6.98-5.47-9.26-9.58c-2.28-4.11-3.41-8.88-3.41-14.29c0-5.52,1.14-10.31,3.41-14.38
			c2.27-4.06,5.36-7.2,9.26-9.42c3.9-2.22,8.23-3.33,12.99-3.33c4.98,0,9.39,1.11,13.24,3.33c3.84,2.22,6.9,5.36,9.18,9.42
			c2.27,4.06,3.41,8.85,3.41,14.38C925.22,249.72,924.09,254.48,921.81,258.6z"/>
		<path class="st2" d="M1023.14,208.89c-6.82-6.06-16.57-9.1-29.24-9.1c-6.93,0-13.59,0.92-19.98,2.76
			c-6.39,1.84-11.97,4.55-16.73,8.12l7.96,14.78c3.36-2.71,7.36-4.82,12.02-6.34c4.65-1.51,9.36-2.27,14.13-2.27
			c7.36,0,12.86,1.65,16.49,4.95c3.63,3.3,5.44,7.93,5.44,13.89v1.3h-22.58c-8.77,0-15.81,1.14-21.12,3.41
			c-5.31,2.27-9.12,5.36-11.45,9.26c-2.33,3.9-3.49,8.28-3.49,13.16c0,4.98,1.32,9.45,3.98,13.4c2.65,3.95,6.42,7.04,11.29,9.26
			c4.87,2.22,10.56,3.33,17.06,3.33c7.8,0,14.18-1.41,19.17-4.22c3.43-1.94,6.13-4.43,8.12-7.46v10.54h19.17v-50.84
			C1033.38,224.27,1029.97,214.96,1023.14,208.89z M1004.55,270.62c-3.95,2.28-8.42,3.41-13.4,3.41c-5.2,0-9.26-1.08-12.18-3.25
			c-2.92-2.16-4.39-5.04-4.39-8.61c0-3.36,1.22-6.14,3.65-8.37c2.44-2.22,7.07-3.33,13.89-3.33h21.12v10.07
			C1011.39,264.99,1008.5,268.34,1004.55,270.62z"/>
		<rect x="1052.98" y="200.93" class="st2" width="20.14" height="86.74"/>
		<path class="st2" d="M1162.06,167.15v44.15c-2.41-2.73-5.17-4.97-8.28-6.71c-5.74-3.19-12.24-4.79-19.49-4.79
			c-8.34,0-15.84,1.84-22.5,5.52c-6.66,3.68-11.89,8.88-15.67,15.59c-3.79,6.72-5.69,14.51-5.69,23.39c0,8.99,1.89,16.81,5.69,23.47
			c3.79,6.66,9.01,11.83,15.67,15.51c6.66,3.68,14.16,5.52,22.5,5.52c7.58,0,14.21-1.6,19.9-4.79c3.46-1.94,6.46-4.53,9.02-7.73
			v11.39h19.33V167.15H1162.06z M1159.05,258.68c-2.33,4.17-5.42,7.36-9.26,9.58c-3.84,2.22-8.2,3.33-13.08,3.33
			c-4.87,0-9.23-1.11-13.08-3.33c-3.84-2.22-6.93-5.41-9.26-9.58c-2.33-4.17-3.49-8.96-3.49-14.38c0-5.52,1.16-10.31,3.49-14.38
			c2.33-4.06,5.41-7.2,9.26-9.42c3.84-2.22,8.2-3.33,13.08-3.33c4.87,0,9.23,1.11,13.08,3.33c3.84,2.22,6.93,5.36,9.26,9.42
			c2.33,4.06,3.49,8.85,3.49,14.38C1162.55,249.72,1161.38,254.51,1159.05,258.68z"/>
	</g>
	<g class="st1">
		<linearGradient id="SVGID_1_" gradientUnits="userSpaceOnUse" x1="258.545" y1="85" x2="258.545" y2="401.3337">
			<stop  offset="0" style="stop-color:#5426D6"/>
			<stop  offset="1" style="stop-color:#4D87E2"/>
		</linearGradient>
		<path class="st3" d="M328.08,85h-17.12H63.79c-18.12,0-32.95,14.83-32.95,32.95v1.95c0,18.12,14.83,32.95,32.95,32.95h134.45
			c-12.54,17.99-21.43,38.7-25.61,61.07h-56.79c-18.12,0-32.95,14.83-32.95,32.95v1.95c0,18.12,14.83,32.95,32.95,32.95h58.83
			c17.23,68.7,79.38,119.58,153.42,119.58c87.35,0,158.17-70.81,158.17-158.17S415.43,85,328.08,85z"/>
		<path class="st4" d="M341.57,235.97l40.18-53.87h-16.77c-6.46-0.37-12.65,2.64-16.34,7.96l-21.19,28.59l-20.55-28.59
			c-3.69-5.32-9.88-8.33-16.34-7.96h-16.77l39.75,53.87l-43.5,58.74h15.9c6.46,0.37,12.65-2.64,16.34-7.96l25.18-33.33l58.95,81.46
			c3.65,5.35,9.86,8.38,16.32,7.96h17.24L341.57,235.97z"/>
	</g>
</g>
<g>
	<g>
		<path class="st4" d="M655.18,205.32c-6.61-3.68-14.13-5.52-22.58-5.52c-7.26,0-13.81,1.6-19.65,4.79
			c-3.44,1.88-6.41,4.36-8.93,7.4v-11.06h-19.33v118.25h20.14V277.1c2.45,2.83,5.26,5.15,8.45,6.92c5.74,3.19,12.18,4.79,19.33,4.79
			c8.45,0,15.97-1.84,22.58-5.52c6.6-3.68,11.83-8.85,15.67-15.51c3.84-6.66,5.77-14.48,5.77-23.47c0-8.88-1.92-16.67-5.77-23.39
			C667.01,214.2,661.78,209,655.18,205.32z M652.58,258.6c-2.27,4.12-5.33,7.31-9.18,9.58c-3.85,2.27-8.26,3.41-13.24,3.41
			c-4.77,0-9.1-1.14-12.99-3.41c-3.9-2.27-6.98-5.47-9.26-9.58c-2.27-4.11-3.41-8.88-3.41-14.29c0-5.52,1.14-10.31,3.41-14.38
			c2.27-4.06,5.36-7.2,9.26-9.42c3.9-2.22,8.23-3.33,12.99-3.33c4.98,0,9.39,1.11,13.24,3.33c3.84,2.22,6.9,5.36,9.18,9.42
			c2.27,4.06,3.41,8.85,3.41,14.38C655.99,249.72,654.85,254.48,652.58,258.6z"/>
		<path class="st4" d="M712.17,213.54v-12.6h-19.33v86.74h20.14v-41.91c0-9.1,2.27-15.86,6.82-20.3c4.55-4.44,10.72-6.66,18.52-6.66
			c0.65,0,1.35,0.03,2.11,0.08c0.76,0.06,1.51,0.14,2.27,0.24V199.8c-8.12,0-15,1.54-20.63,4.63
			C717.91,206.71,714.61,209.75,712.17,213.54z"/>
		<path class="st4" d="M816.26,205.4c-6.61-3.74-14.13-5.6-22.58-5.6c-8.66,0-16.38,1.92-23.15,5.77
			c-6.77,3.85-12.08,9.1-15.92,15.76c-3.85,6.66-5.77,14.32-5.77,22.98c0,8.66,1.97,16.32,5.93,22.98
			c3.95,6.66,9.53,11.91,16.73,15.76c7.2,3.85,15.62,5.77,25.26,5.77c7.58,0,14.32-1.19,20.22-3.57c5.9-2.38,10.85-5.85,14.86-10.4
			l-11.05-12.67c-3.03,3.14-6.5,5.52-10.4,7.15c-3.9,1.62-8.28,2.44-13.16,2.44c-5.74,0-10.78-1.11-15.11-3.33
			c-4.33-2.22-7.66-5.33-9.99-9.34c-1.47-2.52-2.47-5.29-3.01-8.28h68.07c0.11-0.87,0.19-1.87,0.24-3.01
			c0.05-1.14,0.08-2.08,0.08-2.84c0-9.2-1.9-17.16-5.68-23.88C828.06,214.36,822.86,209.14,816.26,205.4z M771.75,228.55
			c2.06-3.9,5.01-6.9,8.85-9.02c3.84-2.11,8.2-3.17,13.08-3.17c4.98,0,9.31,1.06,12.99,3.17c3.68,2.11,6.58,5.09,8.69,8.93
			c1.48,2.7,2.4,5.65,2.79,8.85H769C769.44,234.12,770.36,231.19,771.75,228.55z"/>
		<path class="st4" d="M924.41,205.32c-6.61-3.68-14.13-5.52-22.58-5.52c-7.26,0-13.81,1.6-19.65,4.79
			c-3.44,1.88-6.41,4.36-8.93,7.4v-11.06h-19.33v118.25h20.14V277.1c2.45,2.83,5.26,5.15,8.45,6.92c5.74,3.19,12.18,4.79,19.33,4.79
			c8.45,0,15.97-1.84,22.58-5.52c6.6-3.68,11.83-8.85,15.67-15.51c3.84-6.66,5.77-14.48,5.77-23.47c0-8.88-1.92-16.67-5.77-23.39
			C936.24,214.2,931.01,209,924.41,205.32z M921.81,258.6c-2.27,4.12-5.33,7.31-9.18,9.58c-3.85,2.27-8.26,3.41-13.24,3.41
			c-4.77,0-9.1-1.14-12.99-3.41c-3.9-2.27-6.98-5.47-9.26-9.58c-2.28-4.11-3.41-8.88-3.41-14.29c0-5.52,1.14-10.31,3.41-14.38
			c2.27-4.06,5.36-7.2,9.26-9.42c3.9-2.22,8.23-3.33,12.99-3.33c4.98,0,9.39,1.11,13.24,3.33c3.84,2.22,6.9,5.36,9.18,9.42
			c2.27,4.06,3.41,8.85,3.41,14.38C925.22,249.72,924.09,254.48,921.81,258.6z"/>
		<path class="st4" d="M1023.14,208.89c-6.82-6.06-16.57-9.1-29.24-9.1c-6.93,0-13.59,0.92-19.98,2.76
			c-6.39,1.84-11.97,4.55-16.73,8.12l7.96,14.78c3.36-2.71,7.36-4.82,12.02-6.34c4.65-1.51,9.36-2.27,14.13-2.27
			c7.36,0,12.86,1.65,16.49,4.95c3.63,3.3,5.44,7.93,5.44,13.89v1.3h-22.58c-8.77,0-15.81,1.14-21.12,3.41
			c-5.31,2.27-9.12,5.36-11.45,9.26c-2.33,3.9-3.49,8.28-3.49,13.16c0,4.98,1.32,9.45,3.98,13.4c2.65,3.95,6.42,7.04,11.29,9.26
			c4.87,2.22,10.56,3.33,17.06,3.33c7.8,0,14.18-1.41,19.17-4.22c3.43-1.94,6.13-4.43,8.12-7.46v10.54h19.17v-50.84
			C1033.38,224.27,1029.97,214.96,1023.14,208.89z M1004.55,270.62c-3.95,2.28-8.42,3.41-13.4,3.41c-5.2,0-9.26-1.08-12.18-3.25
			c-2.92-2.16-4.39-5.04-4.39-8.61c0-3.36,1.22-6.14,3.65-8.37c2.44-2.22,7.07-3.33,13.89-3.33h21.12v10.07
			C1011.39,264.99,1008.5,268.34,1004.55,270.62z"/>
		<rect x="1052.98" y="200.93" class="st4" width="20.14" height="86.74"/>
		<path class="st4" d="M1162.06,167.15v44.15c-2.41-2.73-5.17-4.97-8.28-6.71c-5.74-3.19-12.24-4.79-19.49-4.79
			c-8.34,0-15.84,1.84-22.5,5.52c-6.66,3.68-11.89,8.88-15.67,15.59c-3.79,6.72-5.69,14.51-5.69,23.39c0,8.99,1.89,16.81,5.69,23.47
			c3.79,6.66,9.01,11.83,15.67,15.51c6.66,3.68,14.16,5.52,22.5,5.52c7.58,0,14.21-1.6,19.9-4.79c3.46-1.94,6.46-4.53,9.02-7.73
			v11.39h19.33V167.15H1162.06z M1159.05,258.68c-2.33,4.17-5.42,7.36-9.26,9.58c-3.84,2.22-8.2,3.33-13.08,3.33
			c-4.87,0-9.23-1.11-13.08-3.33c-3.84-2.22-6.93-5.41-9.26-9.58c-2.33-4.17-3.49-8.96-3.49-14.38c0-5.52,1.16-10.31,3.49-14.38
			c2.33-4.06,5.41-7.2,9.26-9.42c3.84-2.22,8.2-3.33,13.08-3.33c4.87,0,9.23,1.11,13.08,3.33c3.84,2.22,6.93,5.36,9.26,9.42
			c2.33,4.06,3.49,8.85,3.49,14.38C1162.55,249.72,1161.38,254.51,1159.05,258.68z"/>
	</g>
	<g>
		<path class="st4" d="M328.08,85h-17.12H63.79c-18.12,0-32.95,14.83-32.95,32.95v1.95c0,18.12,14.83,32.95,32.95,32.95h134.45
			c-12.54,17.99-21.43,38.7-25.61,61.07h-56.79c-18.12,0-32.95,14.83-32.95,32.95v1.95c0,18.12,14.83,32.95,32.95,32.95h58.83
			c17.23,68.7,79.38,119.58,153.42,119.58c87.35,0,158.17-70.81,158.17-158.17S415.43,85,328.08,85z"/>
		<linearGradient id="SVGID_2_" gradientUnits="userSpaceOnUse" x1="344.9961" y1="182.067" x2="344.9961" y2="342.8821">
			<stop  offset="0" style="stop-color:#5426D6"/>
			<stop  offset="1" style="stop-color:#4D87E2"/>
		</linearGradient>
		<path class="st5" d="M341.57,235.97l40.18-53.87h-16.77c-6.46-0.37-12.65,2.64-16.34,7.96l-21.19,28.59l-20.55-28.59
			c-3.69-5.32-9.88-8.33-16.34-7.96h-16.77l39.75,53.87l-43.5,58.74h15.9c6.46,0.37,12.65-2.64,16.34-7.96l25.18-33.33l58.95,81.46
			c3.65,5.35,9.86,8.38,16.32,7.96h17.24L341.57,235.97z"/>
	</g>
</g>
</svg>
