<?xml version="1.0" encoding="utf-8"?>
<!-- Generator: Adobe Illustrator 23.0.3, SVG Export Plug-In . SVG Version: 6.00 Build 0)  -->
<svg version="1.1" id="Capa_1" xmlns="http://www.w3.org/2000/svg" xmlns:xlink="http://www.w3.org/1999/xlink" x="0px" y="0px"
	 viewBox="0 0 1200 1000" style="enable-background:new 0 0 1200 1000;" xml:space="preserve">
<style type="text/css">
	.st0{display:none;}
	.st1{display:inline;}
	.st2{fill:#221D30;}
	.st3{fill:url(#SVGID_1_);}
	.st4{fill:#FFFFFF;}
	.st5{fill:url(#SVGID_2_);}
</style>
<g class="st0">
	<g class="st1">
		<path class="st2" d="M183.05,748.12c-12.08-6.73-25.83-10.09-41.27-10.09c-13.26,0-25.24,2.92-35.93,8.76
			c-6.29,3.44-11.72,7.97-16.33,13.53V740.1H54.19v216.15h36.82v-76.93c4.48,5.17,9.61,9.41,15.44,12.65
			c10.49,5.84,22.27,8.76,35.33,8.76c15.44,0,29.19-3.36,41.27-10.09c12.07-6.73,21.62-16.18,28.65-28.36
			c7.02-12.17,10.54-26.47,10.54-42.9c0-16.23-3.52-30.48-10.54-42.76C204.68,764.35,195.12,754.85,183.05,748.12z M178.3,845.51
			c-4.16,7.52-9.75,13.36-16.78,17.52c-7.03,4.16-15.1,6.23-24.2,6.23c-8.71,0-16.63-2.08-23.75-6.23
			c-7.13-4.16-12.77-9.99-16.92-17.52c-4.16-7.52-6.23-16.23-6.23-26.13c0-10.1,2.08-18.85,6.23-26.28
			c4.16-7.42,9.8-13.16,16.92-17.22c7.13-4.05,15.04-6.09,23.75-6.09c9.1,0,17.17,2.03,24.2,6.09c7.02,4.06,12.62,9.8,16.78,17.22
			c4.16,7.42,6.23,16.18,6.23,26.28C184.54,829.28,182.46,837.99,178.3,845.51z"/>
		<path class="st2" d="M287.22,763.14V740.1h-35.33v158.55h36.82v-76.6c0-16.63,4.16-28.99,12.47-37.11
			c8.31-8.12,19.6-12.17,33.85-12.17c1.19,0,2.47,0.05,3.86,0.15c1.38,0.1,2.77,0.25,4.16,0.45v-35.33
			c-14.85,0-27.42,2.82-37.71,8.46C297.72,750.66,291.69,756.22,287.22,763.14z"/>
		<path class="st2" d="M477.49,748.27c-12.08-6.83-25.83-10.24-41.27-10.24c-15.84,0-29.94,3.52-42.31,10.54
			c-12.37,7.03-22.07,16.63-29.1,28.8c-7.03,12.17-10.54,26.18-10.54,42.01c0,15.84,3.61,29.84,10.84,42.01
			c7.22,12.17,17.42,21.78,30.58,28.8c13.16,7.03,28.55,10.54,46.17,10.54c13.85,0,26.17-2.18,36.97-6.53
			c10.79-4.35,19.84-10.69,27.17-19l-20.19-23.16c-5.54,5.74-11.88,10.1-19,13.06c-7.13,2.97-15.14,4.45-24.05,4.45
			c-10.49,0-19.7-2.03-27.61-6.09c-7.92-4.05-14.01-9.75-18.26-17.07c-2.68-4.61-4.52-9.66-5.51-15.14H515.8
			c0.19-1.58,0.34-3.42,0.45-5.49c0.1-2.08,0.15-3.81,0.15-5.19c0-16.82-3.47-31.37-10.39-43.65
			C499.07,764.65,489.57,755.1,477.49,748.27z M396.14,790.58c3.76-7.13,9.15-12.62,16.18-16.48c7.02-3.86,14.99-5.79,23.9-5.79
			c9.1,0,17.02,1.93,23.75,5.79c6.73,3.86,12.02,9.31,15.88,16.33c2.71,4.93,4.39,10.33,5.1,16.18H391.1
			C391.92,800.77,393.59,795.42,396.14,790.58z"/>
		<path class="st2" d="M675.19,748.12c-12.08-6.73-25.83-10.09-41.27-10.09c-13.26,0-25.24,2.92-35.93,8.76
			c-6.29,3.44-11.72,7.97-16.33,13.53V740.1h-35.33v216.15h36.82v-76.93c4.48,5.17,9.61,9.41,15.44,12.65
			c10.49,5.84,22.27,8.76,35.33,8.76c15.44,0,29.19-3.36,41.27-10.09c12.07-6.73,21.62-16.18,28.65-28.36
			c7.02-12.17,10.54-26.47,10.54-42.9c0-16.23-3.52-30.48-10.54-42.76C696.81,764.35,687.26,754.85,675.19,748.12z M670.44,845.51
			c-4.16,7.52-9.75,13.36-16.77,17.52c-7.03,4.16-15.1,6.23-24.2,6.23c-8.71,0-16.63-2.08-23.75-6.23
			c-7.13-4.16-12.77-9.99-16.92-17.52c-4.16-7.52-6.24-16.23-6.24-26.13c0-10.1,2.08-18.85,6.24-26.28
			c4.16-7.42,9.8-13.16,16.92-17.22c7.13-4.05,15.04-6.09,23.75-6.09c9.1,0,17.17,2.03,24.2,6.09c7.02,4.06,12.62,9.8,16.77,17.22
			c4.16,7.42,6.23,16.18,6.23,26.28C676.67,829.28,674.59,837.99,670.44,845.51z"/>
		<path class="st2" d="M855.66,754.65c-12.47-11.08-30.28-16.63-53.44-16.63c-12.67,0-24.84,1.68-36.52,5.05
			c-11.68,3.37-21.87,8.31-30.58,14.85l14.55,27.02c6.13-4.95,13.46-8.81,21.97-11.58c8.51-2.77,17.12-4.16,25.83-4.16
			c13.46,0,23.5,3.02,30.14,9.06c6.63,6.04,9.95,14.5,9.95,25.39v2.38h-41.27c-16.03,0-28.9,2.08-38.6,6.23
			c-9.7,4.16-16.68,9.8-20.93,16.92c-4.26,7.13-6.38,15.14-6.38,24.05c0,9.11,2.42,17.27,7.27,24.49
			c4.85,7.23,11.73,12.87,20.64,16.92c8.91,4.05,19.3,6.09,31.18,6.09c14.25,0,25.93-2.57,35.04-7.72
			c6.27-3.55,11.2-8.1,14.85-13.63v19.27h35.04v-92.93C874.37,782.76,868.13,765.74,855.66,754.65z M821.67,867.48
			c-7.23,4.16-15.39,6.24-24.5,6.24c-9.5,0-16.92-1.98-22.27-5.94c-5.34-3.96-8.02-9.2-8.02-15.74c0-6.13,2.23-11.23,6.68-15.29
			c4.45-4.05,12.92-6.09,25.39-6.09h38.6v18.41C834.18,857.19,828.89,863.32,821.67,867.48z"/>
		<rect x="910.2" y="740.1" class="st2" width="36.82" height="158.55"/>
		<path class="st2" d="M1109.59,678.35v80.7c-4.41-4.98-9.45-9.09-15.14-12.26c-10.49-5.84-22.37-8.76-35.63-8.76
			c-15.24,0-28.95,3.37-41.12,10.09c-12.17,6.73-21.73,16.23-28.65,28.5c-6.93,12.28-10.39,26.53-10.39,42.76
			c0,16.43,3.46,30.73,10.39,42.9c6.93,12.17,16.48,21.63,28.65,28.36c12.17,6.73,25.88,10.09,41.12,10.09
			c13.85,0,25.98-2.92,36.37-8.76c6.32-3.55,11.81-8.27,16.48-14.13v20.81H1147V678.35H1109.59z M1104.1,845.66
			c-4.26,7.62-9.9,13.46-16.92,17.52c-7.03,4.06-14.99,6.09-23.9,6.09c-8.91,0-16.88-2.03-23.9-6.09
			c-7.03-4.05-12.67-9.89-16.92-17.52c-4.26-7.62-6.38-16.38-6.38-26.28c0-10.1,2.12-18.85,6.38-26.28
			c4.25-7.42,9.9-13.16,16.92-17.22c7.03-4.05,15-6.09,23.9-6.09c8.91,0,16.87,2.03,23.9,6.09c7.02,4.06,12.67,9.8,16.92,17.22
			c4.25,7.42,6.38,16.18,6.38,26.28C1110.48,829.28,1108.35,838.04,1104.1,845.66z"/>
	</g>
	<g class="st1">
		<linearGradient id="SVGID_1_" gradientUnits="userSpaceOnUse" x1="470.4137" y1="43.3664" x2="470.4137" y2="621.5976">
			<stop  offset="0" style="stop-color:#5426D6"/>
			<stop  offset="1" style="stop-color:#4D87E2"/>
		</linearGradient>
		<path class="st3" d="M597.52,43.37h-31.3H114.42c-33.12,0-60.23,27.1-60.23,60.23v3.56c0,33.12,27.1,60.23,60.23,60.23h245.75
			c-22.92,32.88-39.17,70.74-46.82,111.64H209.55c-33.12,0-60.23,27.1-60.23,60.23v3.56c0,33.12,27.1,60.23,60.23,60.23h107.54
			C348.57,528.6,462.18,621.6,597.52,621.6c159.67,0,289.12-129.44,289.12-289.12S757.19,43.37,597.52,43.37z"/>
		<path class="st4" d="M622.18,319.33l73.44-98.48h-30.65c-11.81-0.68-23.13,4.83-29.87,14.55l-38.73,52.26L558.8,235.4
			c-6.75-9.72-18.06-15.23-29.87-14.55h-30.65l72.66,98.48L491.41,426.7h29.06c11.81,0.68,23.13-4.83,29.87-14.55l46.02-60.92
			l107.76,148.9c6.68,9.78,18.02,15.31,29.84,14.55h31.51L622.18,319.33z"/>
	</g>
</g>
<g>
	<g>
		<path class="st4" d="M182.86,748.45c-12.08-6.73-25.83-10.09-41.27-10.09c-13.26,0-25.24,2.92-35.93,8.76
			c-6.29,3.44-11.72,7.97-16.33,13.53v-20.21H54v216.15h36.82v-76.93c4.48,5.17,9.61,9.41,15.44,12.65
			c10.49,5.84,22.27,8.76,35.33,8.76c15.44,0,29.19-3.36,41.27-10.09c12.07-6.73,21.62-16.18,28.65-28.36
			c7.02-12.17,10.54-26.47,10.54-42.9c0-16.23-3.52-30.48-10.54-42.76C204.48,764.69,194.93,755.19,182.86,748.45z M178.11,845.84
			c-4.16,7.52-9.75,13.36-16.78,17.52c-7.03,4.16-15.1,6.23-24.2,6.23c-8.71,0-16.63-2.08-23.75-6.23
			c-7.13-4.16-12.77-9.99-16.92-17.52c-4.16-7.52-6.23-16.23-6.23-26.13c0-10.1,2.08-18.85,6.23-26.28
			c4.16-7.42,9.8-13.16,16.92-17.22c7.13-4.05,15.04-6.09,23.75-6.09c9.1,0,17.17,2.03,24.2,6.09c7.02,4.06,12.62,9.8,16.78,17.22
			c4.16,7.42,6.23,16.18,6.23,26.28C184.34,829.61,182.27,838.32,178.11,845.84z"/>
		<path class="st4" d="M287.03,763.48v-23.04h-35.33v158.55h36.82v-76.6c0-16.63,4.16-28.99,12.47-37.11
			c8.31-8.12,19.6-12.17,33.85-12.17c1.19,0,2.47,0.05,3.86,0.15c1.38,0.1,2.77,0.25,4.16,0.45v-35.33
			c-14.85,0-27.42,2.82-37.71,8.46C297.53,750.99,291.5,756.55,287.03,763.48z"/>
		<path class="st4" d="M477.3,748.6c-12.08-6.83-25.83-10.24-41.27-10.24c-15.84,0-29.94,3.52-42.31,10.54
			c-12.37,7.03-22.07,16.63-29.1,28.8c-7.03,12.17-10.54,26.18-10.54,42.01c0,15.84,3.61,29.84,10.84,42.01
			c7.22,12.17,17.42,21.78,30.58,28.8c13.16,7.03,28.55,10.54,46.17,10.54c13.85,0,26.17-2.18,36.97-6.53
			c10.79-4.35,19.84-10.69,27.17-19l-20.19-23.16c-5.54,5.74-11.88,10.1-19,13.06c-7.13,2.97-15.14,4.45-24.05,4.45
			c-10.49,0-19.7-2.03-27.61-6.09c-7.92-4.05-14.01-9.75-18.26-17.07c-2.68-4.61-4.52-9.66-5.51-15.14H515.6
			c0.19-1.58,0.34-3.42,0.45-5.49c0.1-2.08,0.15-3.81,0.15-5.19c0-16.82-3.47-31.37-10.39-43.65
			C498.87,764.98,489.37,755.43,477.3,748.6z M395.95,790.91c3.76-7.13,9.15-12.62,16.18-16.48c7.02-3.86,14.99-5.79,23.9-5.79
			c9.1,0,17.02,1.93,23.75,5.79c6.73,3.86,12.02,9.31,15.88,16.33c2.71,4.93,4.39,10.33,5.1,16.18h-89.86
			C391.73,801.1,393.39,795.75,395.95,790.91z"/>
		<path class="st4" d="M674.99,748.45c-12.08-6.73-25.83-10.09-41.27-10.09c-13.26,0-25.24,2.92-35.93,8.76
			c-6.29,3.44-11.72,7.97-16.33,13.53v-20.21h-35.33v216.15h36.82v-76.93c4.48,5.17,9.61,9.41,15.44,12.65
			c10.49,5.84,22.27,8.76,35.33,8.76c15.44,0,29.19-3.36,41.27-10.09c12.07-6.73,21.62-16.18,28.65-28.36
			c7.02-12.17,10.54-26.47,10.54-42.9c0-16.23-3.52-30.48-10.54-42.76C696.62,764.69,687.06,755.19,674.99,748.45z M670.24,845.84
			c-4.16,7.52-9.75,13.36-16.77,17.52c-7.03,4.16-15.1,6.23-24.2,6.23c-8.71,0-16.63-2.08-23.75-6.23
			c-7.13-4.16-12.77-9.99-16.92-17.52c-4.16-7.52-6.24-16.23-6.24-26.13c0-10.1,2.08-18.85,6.24-26.28
			c4.16-7.42,9.8-13.16,16.92-17.22c7.13-4.05,15.04-6.09,23.75-6.09c9.1,0,17.17,2.03,24.2,6.09c7.02,4.06,12.62,9.8,16.77,17.22
			c4.16,7.42,6.23,16.18,6.23,26.28C676.48,829.61,674.4,838.32,670.24,845.84z"/>
		<path class="st4" d="M855.47,754.99c-12.47-11.08-30.28-16.63-53.44-16.63c-12.67,0-24.84,1.68-36.52,5.05
			c-11.68,3.37-21.87,8.31-30.58,14.85l14.55,27.02c6.13-4.95,13.46-8.81,21.97-11.58c8.51-2.77,17.12-4.16,25.83-4.16
			c13.46,0,23.5,3.02,30.14,9.06c6.63,6.04,9.95,14.5,9.95,25.39v2.38h-41.27c-16.03,0-28.9,2.08-38.6,6.23
			c-9.7,4.16-16.68,9.8-20.93,16.92c-4.26,7.13-6.38,15.14-6.38,24.05c0,9.11,2.42,17.27,7.27,24.49
			c4.85,7.23,11.73,12.87,20.64,16.92c8.91,4.05,19.3,6.09,31.18,6.09c14.25,0,25.93-2.57,35.04-7.72
			c6.27-3.55,11.2-8.1,14.85-13.63v19.27h35.04v-92.93C874.18,783.1,867.94,766.07,855.47,754.99z M821.47,867.81
			c-7.23,4.16-15.39,6.24-24.5,6.24c-9.5,0-16.92-1.98-22.27-5.94c-5.34-3.96-8.02-9.2-8.02-15.74c0-6.13,2.23-11.23,6.68-15.29
			c4.45-4.05,12.92-6.09,25.39-6.09h38.6v18.41C833.99,857.52,828.7,863.66,821.47,867.81z"/>
		<rect x="910.01" y="740.44" class="st4" width="36.82" height="158.55"/>
		<path class="st4" d="M1109.4,678.68v80.7c-4.41-4.98-9.45-9.09-15.14-12.26c-10.49-5.84-22.37-8.76-35.63-8.76
			c-15.24,0-28.95,3.37-41.12,10.09c-12.17,6.73-21.73,16.23-28.65,28.5c-6.93,12.28-10.39,26.53-10.39,42.76
			c0,16.43,3.46,30.73,10.39,42.9c6.93,12.17,16.48,21.63,28.65,28.36c12.17,6.73,25.88,10.09,41.12,10.09
			c13.85,0,25.98-2.92,36.37-8.76c6.32-3.55,11.81-8.27,16.48-14.13v20.81h35.33V678.68H1109.4z M1103.9,845.99
			c-4.26,7.62-9.9,13.46-16.92,17.52c-7.03,4.06-14.99,6.09-23.9,6.09c-8.91,0-16.88-2.03-23.9-6.09
			c-7.03-4.05-12.67-9.89-16.92-17.52c-4.26-7.62-6.38-16.38-6.38-26.28c0-10.1,2.12-18.85,6.38-26.28
			c4.25-7.42,9.9-13.16,16.92-17.22c7.03-4.05,15-6.09,23.9-6.09c8.91,0,16.87,2.03,23.9,6.09c7.02,4.06,12.67,9.8,16.92,17.22
			c4.25,7.42,6.38,16.18,6.38,26.28C1110.29,829.61,1108.16,838.37,1103.9,845.99z"/>
	</g>
	<g>
		<path class="st4" d="M597.32,43.7h-31.3H114.23C81.1,43.7,54,70.8,54,103.93v3.56c0,33.12,27.1,60.23,60.23,60.23h245.75
			c-22.92,32.88-39.17,70.74-46.82,111.64H209.35c-33.12,0-60.23,27.1-60.23,60.23v3.56c0,33.12,27.1,60.23,60.23,60.23h107.54
			c31.49,125.57,145.09,218.57,280.43,218.57c159.67,0,289.12-129.44,289.12-289.12S757,43.7,597.32,43.7z"/>
		<linearGradient id="SVGID_2_" gradientUnits="userSpaceOnUse" x1="628.2449" y1="221.1311" x2="628.2449" y2="515.0876">
			<stop  offset="0" style="stop-color:#5426D6"/>
			<stop  offset="1" style="stop-color:#4D87E2"/>
		</linearGradient>
		<path class="st5" d="M621.99,319.66l73.44-98.48h-30.65c-11.81-0.68-23.13,4.83-29.87,14.55L596.17,288l-37.56-52.26
			c-6.75-9.72-18.06-15.23-29.87-14.55h-30.65l72.66,98.48l-79.52,107.37h29.06c11.81,0.68,23.13-4.83,29.87-14.55l46.02-60.92
			l107.76,148.9c6.68,9.78,18.02,15.31,29.84,14.55h31.51L621.99,319.66z"/>
	</g>
</g>
</svg>
