<svg width="21" height="19" viewBox="0 0 21 19" fill="none" xmlns="http://www.w3.org/2000/svg">
<path d="M14.3577 17.7136L14.358 14.6337C14.3581 12.9325 12.979 11.5533 11.2778 11.5533H4.38047C2.67949 11.5533 1.30053 12.9321 1.30033 14.6331L1.29999 17.7136M19.6997 17.7138L19.7 14.6339C19.7001 12.9327 18.3211 11.5535 16.6198 11.5535M13.7644 1.89129C14.5208 2.45253 15.011 3.35227 15.011 4.3665C15.011 5.38073 14.5208 6.28047 13.7644 6.8417M10.9732 4.36633C10.9732 6.06744 9.59419 7.44647 7.89307 7.44647C6.19196 7.44647 4.81294 6.06744 4.81294 4.36633C4.81294 2.66522 6.19196 1.28619 7.89307 1.28619C9.59419 1.28619 10.9732 2.66522 10.9732 4.36633Z" stroke="white" stroke-width="2" stroke-linecap="round" stroke-linejoin="round"/>
</svg>
