<svg width="19" height="20" viewBox="0 0 19 20" fill="none" xmlns="http://www.w3.org/2000/svg">
<path d="M11.5956 6.5V4.75C11.5956 4.28587 11.419 3.84075 11.1046 3.51256C10.7902 3.18437 10.3637 3 9.91912 3H4.05147C3.60684 3 3.18043 3.18437 2.86603 3.51256C2.55163 3.84075 2.375 4.28587 2.375 4.75V15.25C2.375 15.7141 2.55163 16.1592 2.86603 16.4874C3.18043 16.8156 3.60684 17 4.05147 17H9.91912C10.3637 17 10.7902 16.8156 11.1046 16.4874C11.419 16.1592 11.5956 15.7141 11.5956 15.25V13.5M6.56618 10H16.625M16.625 10L14.1103 7.375M16.625 10L14.1103 12.625" stroke="white" stroke-width="2" stroke-linecap="round" stroke-linejoin="round"/>
</svg>
