<svg width="22" height="22" viewBox="0 0 22 22" fill="none" xmlns="http://www.w3.org/2000/svg">
<path d="M4.40002 18.2C4.86119 17.6835 7.02107 15.3067 7.65403 15.3067H14.3464C15.2636 15.3067 17.136 17.2769 17.6 17.9714M20.6 11C20.6 16.302 16.302 20.6 11 20.6C5.69809 20.6 1.40002 16.302 1.40002 11C1.40002 5.69809 5.69809 1.40002 11 1.40002C16.302 1.40002 20.6 5.69809 20.6 11ZM14.4389 7.72798C14.4389 5.89647 12.8927 4.40002 11.0003 4.40002C9.10794 4.40002 7.56176 5.89647 7.56176 7.72798C7.56176 9.55949 9.10794 11.0559 11.0003 11.0559C12.8927 11.0559 14.4389 9.55949 14.4389 7.72798Z" stroke="white" stroke-width="1.5"/>
</svg>
