<svg width="20" height="20" viewBox="0 0 20 20" fill="none" xmlns="http://www.w3.org/2000/svg">
<path d="M11 5.875C11 5.32272 10.5523 4.875 10 4.875C9.44772 4.875 9 5.32272 9 5.875L11 5.875ZM9 14.125C9 14.6773 9.44772 15.125 10 15.125C10.5523 15.125 11 14.6773 11 14.125H9ZM14.125 11C14.6773 11 15.125 10.5523 15.125 10C15.125 9.44772 14.6773 9 14.125 9V11ZM5.875 9C5.32272 9 4.875 9.44772 4.875 10C4.875 10.5523 5.32272 11 5.875 11V9ZM17.25 10C17.25 14.0041 14.0041 17.25 10 17.25V19.25C15.1086 19.25 19.25 15.1086 19.25 10H17.25ZM10 17.25C5.99594 17.25 2.75 14.0041 2.75 10H0.75C0.75 15.1086 4.89137 19.25 10 19.25V17.25ZM2.75 10C2.75 5.99594 5.99594 2.75 10 2.75V0.75C4.89137 0.75 0.75 4.89137 0.75 10H2.75ZM10 2.75C14.0041 2.75 17.25 5.99594 17.25 10H19.25C19.25 4.89137 15.1086 0.75 10 0.75V2.75ZM9 5.875L9 10L11 10L11 5.875L9 5.875ZM9 10V14.125H11V10H9ZM14.125 9H10V11H14.125V9ZM10 9H5.875V11H10V9Z" fill="white"/>
</svg>
