<svg width="101" height="50" viewBox="0 0 101 50" fill="none" xmlns="http://www.w3.org/2000/svg">
<rect x="0.5" y="0.5" width="100" height="49" rx="4.5" fill="#F4FCF0" stroke="#25972B"/>
<path d="M32.6865 24.632H38.4465V25.992H32.6865V24.632ZM32.8305 29.608H39.3585V31H31.2305V19.8H39.1345V21.192H32.8305V29.608ZM40.3057 31L43.9537 26.264L43.9377 27.048L40.4657 22.52H42.1777L44.8337 26.008H44.1777L46.8337 22.52H48.5137L44.9937 27.08L45.0097 26.264L48.6897 31H46.9457L44.1457 27.288L44.7697 27.384L42.0177 31H40.3057ZM53.7806 31.096C52.9166 31.096 52.1433 30.9093 51.4606 30.536C50.7886 30.1627 50.2606 29.6507 49.8766 29C49.4926 28.3493 49.3006 27.6027 49.3006 26.76C49.3006 25.9173 49.4926 25.1707 49.8766 24.52C50.2606 23.8693 50.7886 23.3627 51.4606 23C52.1433 22.6267 52.9166 22.44 53.7806 22.44C54.5486 22.44 55.2313 22.5947 55.8286 22.904C56.4366 23.2027 56.9059 23.6507 57.2366 24.248L56.0686 25C55.7913 24.584 55.4499 24.28 55.0446 24.088C54.6499 23.8853 54.2233 23.784 53.7646 23.784C53.2099 23.784 52.7139 23.9067 52.2766 24.152C51.8393 24.3973 51.4926 24.744 51.2366 25.192C50.9806 25.6293 50.8526 26.152 50.8526 26.76C50.8526 27.368 50.9806 27.896 51.2366 28.344C51.4926 28.792 51.8393 29.1387 52.2766 29.384C52.7139 29.6293 53.2099 29.752 53.7646 29.752C54.2233 29.752 54.6499 29.656 55.0446 29.464C55.4499 29.2613 55.7913 28.952 56.0686 28.536L57.2366 29.272C56.9059 29.8587 56.4366 30.312 55.8286 30.632C55.2313 30.9413 54.5486 31.096 53.7806 31.096ZM62.8762 31.096C61.9696 31.096 61.1696 30.9093 60.4762 30.536C59.7936 30.1627 59.2602 29.6507 58.8762 29C58.5029 28.3493 58.3162 27.6027 58.3162 26.76C58.3162 25.9173 58.4976 25.1707 58.8602 24.52C59.2336 23.8693 59.7402 23.3627 60.3802 23C61.0309 22.6267 61.7616 22.44 62.5722 22.44C63.3936 22.44 64.1189 22.6213 64.7482 22.984C65.3776 23.3467 65.8682 23.8587 66.2202 24.52C66.5829 25.1707 66.7642 25.9333 66.7642 26.808C66.7642 26.872 66.7589 26.9467 66.7482 27.032C66.7482 27.1173 66.7429 27.1973 66.7322 27.272H59.5162V26.168H65.9322L65.3082 26.552C65.3189 26.008 65.2069 25.5227 64.9722 25.096C64.7376 24.6693 64.4122 24.3387 63.9962 24.104C63.5909 23.8587 63.1162 23.736 62.5722 23.736C62.0389 23.736 61.5642 23.8587 61.1482 24.104C60.7322 24.3387 60.4069 24.6747 60.1722 25.112C59.9376 25.5387 59.8202 26.0293 59.8202 26.584V26.84C59.8202 27.4053 59.9482 27.912 60.2042 28.36C60.4709 28.7973 60.8389 29.1387 61.3082 29.384C61.7776 29.6293 62.3162 29.752 62.9242 29.752C63.4256 29.752 63.8789 29.6667 64.2842 29.496C64.7002 29.3253 65.0629 29.0693 65.3722 28.728L66.2202 29.72C65.8362 30.168 65.3562 30.5093 64.7802 30.744C64.2149 30.9787 63.5802 31.096 62.8762 31.096ZM68.8971 31V19.128H70.4331V31H68.8971Z" fill="#25972B"/>
</svg>
