<svg width="16" height="12" viewBox="0 0 16 12" fill="none" xmlns="http://www.w3.org/2000/svg">
<path d="M13.6 11L3.60001 1M6.80001 4.96105C6.55106 5.2355 6.40001 5.59602 6.40001 5.99087C6.40001 6.85073 7.11635 7.54778 8.00001 7.54778C8.40743 7.54778 8.7793 7.39959 9.06177 7.15559M13.6259 7.54778C14.1767 6.72322 14.4 6.05075 14.4 6.05075C14.4 6.05075 12.9436 1.4 8.00001 1.4C7.72247 1.4 7.45592 1.41466 7.20001 1.44233M11.6 9.5663C10.6817 10.1521 9.49956 10.5663 8.00001 10.5418C3.11795 10.462 1.60001 6.05075 1.60001 6.05075C1.60001 6.05075 2.30524 3.79872 4.40001 2.42888" stroke="#4D87E2" stroke-width="2" stroke-linecap="round"/>
</svg>
